<?xml version="1.0" encoding="UTF-8"?>
<!DOCTYPE svg PUBLIC "-//W3C//DTD SVG 1.1//EN" "http://www.w3.org/Graphics/SVG/1.1/DTD/svg11.dtd">
<!-- Creator: CorelDRAW 2018 (64-Bit Evaluation Version) -->
<svg xmlns="http://www.w3.org/2000/svg" xml:space="preserve" width="9.05965in" height="1.79921in" version="1.1" style="shape-rendering:geometricPrecision; text-rendering:geometricPrecision; image-rendering:optimizeQuality; fill-rule:evenodd; clip-rule:evenodd"
viewBox="0 0 994.28 197.46"
 xmlns:xlink="http://www.w3.org/1999/xlink">
 <defs>
  <style type="text/css">
   <![CDATA[
    .str0 {stroke:#373435;stroke-width:0.76;stroke-miterlimit:2.61313}
    .str1 {stroke:#373435;stroke-width:0.33;stroke-miterlimit:2.61313}
    .fil9 {fill:none}
    .fil2 {fill:#FEFEFE}
    .fil6 {fill:#373435}
    .fil0 {fill:#373435}
    .fil3 {fill:#B88F3D}
    .fil7 {fill:#CA1F25}
    .fil1 {fill:#CA1F25}
    .fil8 {fill:#FEFEFE;fill-rule:nonzero}
    .fil5 {fill:#373435;fill-rule:nonzero}
    .fil4 {fill:#B88F3D;fill-rule:nonzero}
   ]]>
  </style>
 </defs>
 <g id="Layer_x0020_1">
  <metadata id="CorelCorpID_0Corel-Layer"/>
  <path class="fil0 str0" d="M36 0.38l145.77 0 0 82.07c0,17.6 -8.25,33.62 -19.41,46.8 -14.06,16.6 -33.35,29.65 -52.64,39.4l-0.84 0.42 -0.84 -0.42c-19.3,-9.75 -38.58,-22.8 -52.64,-39.4 -11.16,-13.17 -19.41,-29.19 -19.41,-46.8l0 -82.07z"/>
  <path class="fil1 str0" d="M37.86 2.24l71.03 0 71.03 0 0 80.21c0,31.17 -26.9,62.24 -71.03,84.54 -44.13,-22.3 -71.03,-53.37 -71.03,-84.54l0 -80.21z"/>
  <path class="fil2 str1" d="M108.4 37.81c0,-21.23 -36.46,-11.7 -36.46,-25.63l0 79.65c0,16.89 36.46,3.42 36.46,32.73 0,-29.31 36.46,-15.84 36.46,-32.73l0 -79.65c0,13.93 -36.46,4.4 -36.46,25.63z"/>
  <path class="fil0" d="M71.94 12.18c-3.15,1.91 -6.31,3.81 -9.46,5.72 0,27.01 0,46.53 0,73.53 0,26.68 34.88,8.81 45.92,33.12 0,-29.31 -36.46,-15.84 -36.46,-32.73l0 -79.65z"/>
  <path class="fil3" d="M70.08 15.47c-1.92,1.16 -3.83,2.32 -5.75,3.47 0,24.16 0,48.32 0,72.49 0,4.04 0.81,8.07 3.99,10.83 2.56,2.21 6.22,3.27 9.46,4.01 4.24,0.96 8.54,1.54 12.77,2.62 5.94,1.51 10.95,3.82 14.78,7.78 -1,-2.75 -2.71,-5.16 -5.41,-7.08 -2.48,-1.76 -5.42,-2.87 -8.32,-3.73 -3.58,-1.06 -7.27,-1.74 -10.84,-2.81 -3.17,-0.94 -6.59,-2.3 -8.68,-4.99 -1.41,-1.82 -1.99,-3.95 -1.99,-6.23l0 -76.36z"/>
  <path class="fil4" d="M83.93 138.84l1.88 -9.66 2.52 0 -3.22 13.32 -2.35 0 -3.2 -13.32 2.5 0 1.87 9.66zm12.96 3.66l-2.25 0 -3.3 -8.73 0 8.73 -2.25 0 0 -13.32 2.25 0 3.31 8.74 0 -8.74 2.25 0 0 13.32zm8.78 -13.32l0 9.22c-0.01,1.39 -0.33,2.44 -0.96,3.18 -0.63,0.73 -1.53,1.1 -2.71,1.1 -1.2,0 -2.11,-0.37 -2.74,-1.12 -0.63,-0.74 -0.94,-1.82 -0.94,-3.23l0 -9.16 2.27 0 0 9.17c0,0.76 0.1,1.3 0.31,1.62 0.2,0.32 0.58,0.48 1.11,0.48 0.54,0 0.91,-0.16 1.11,-0.48 0.2,-0.32 0.3,-0.85 0.31,-1.58l0 -9.21 2.25 0z"/>
  <polygon class="fil4" points="111.58,137.85 107.83,137.85 107.83,135.72 111.58,135.72 "/>
  <path class="fil4" d="M121.99 129.18l0 9.22c-0.01,1.39 -0.33,2.44 -0.96,3.18 -0.63,0.73 -1.53,1.1 -2.71,1.1 -1.2,0 -2.11,-0.37 -2.74,-1.12 -0.63,-0.74 -0.95,-1.82 -0.95,-3.23l0 -9.16 2.27 0 0 9.17c0,0.76 0.1,1.3 0.31,1.62 0.2,0.32 0.58,0.48 1.11,0.48 0.54,0 0.91,-0.16 1.1,-0.48 0.2,-0.32 0.3,-0.85 0.31,-1.58l0 -9.21 2.25 0zm7.43 7.53l-3.51 0 0 3.56 4.16 0 0 2.23 -6.41 0 0 -13.32 6.4 0 0 2.25 -4.14 0 0 3.15 3.51 0 0 2.13zm1.88 5.79l0 -13.32 2.95 0c1.3,0 2.34,0.49 3.12,1.48 0.78,0.99 1.17,2.34 1.18,4.06l0 2.16c0,1.75 -0.39,3.12 -1.16,4.12 -0.78,1 -1.84,1.5 -3.2,1.5l-2.89 0zm2.25 -11.07l0 8.84 0.68 0c0.75,0 1.28,-0.24 1.59,-0.71 0.31,-0.47 0.47,-1.29 0.48,-2.44l0 -2.31c0,-1.25 -0.15,-2.11 -0.44,-2.6 -0.29,-0.49 -0.79,-0.75 -1.49,-0.77l-0.82 0z"/>
  <path class="fil5" d="M95.91 72.46l0 -5.43c0,0 -0.02,-0.04 -0.07,-0.13 -2.04,-0.04 -3.3,-0.06 -3.8,-0.06 -2.69,0.02 -4.04,0.05 -4.04,0.09l0.07 0.07 0 5.33c0,1.15 0.09,2.06 0.26,2.73 0.04,0.15 0.34,0.33 0.89,0.52 0.56,0.19 0.93,0.29 1.12,0.29 0.09,0 0.14,0.16 0.15,0.48 0.01,0.33 -0.02,0.57 -0.08,0.72 -0.11,0 -0.78,-0.04 -2,-0.13 -1.23,-0.09 -2.12,-0.13 -2.69,-0.13 -0.56,0 -1.38,0.03 -2.45,0.11 -1.08,0.08 -1.78,0.12 -2.1,0.14 -0.09,-0.08 -0.13,-0.27 -0.13,-0.55 0,-0.43 0.02,-0.65 0.07,-0.65 0.26,0 0.67,-0.09 1.24,-0.26 0.56,-0.18 0.88,-0.35 0.94,-0.52 0.15,-0.58 0.23,-1.47 0.23,-2.64l0 -12.42c0,-1.32 -0.08,-2.17 -0.23,-2.54 -0.11,-0.24 -0.42,-0.44 -0.91,-0.62 -0.5,-0.18 -0.88,-0.26 -1.14,-0.26 -0.09,0 -0.13,-0.22 -0.13,-0.65 0,-0.33 0.02,-0.51 0.07,-0.56 2.99,0.13 4.5,0.19 4.52,0.19 0.57,0 2.15,-0.06 4.75,-0.19 0.06,0.11 0.09,0.34 0.09,0.68 0,0.35 -0.04,0.52 -0.13,0.52 -0.19,0 -0.58,0.09 -1.14,0.28 -0.57,0.18 -0.88,0.35 -0.94,0.5 -0.17,0.46 -0.26,1.38 -0.26,2.77l0 4.62 0.07 0.09c2.13,0.04 3.43,0.07 3.9,0.07 0.58,0 1.85,-0.02 3.8,-0.07 0.04,-0.04 0.07,-0.09 0.07,-0.13l0 -4.72c0,-1.13 -0.08,-1.98 -0.23,-2.57 -0.07,-0.17 -0.36,-0.36 -0.89,-0.55 -0.53,-0.2 -0.92,-0.29 -1.15,-0.29 -0.09,0 -0.13,-0.18 -0.14,-0.54 -0.01,-0.36 0.02,-0.58 0.11,-0.67 2.99,0.13 4.61,0.19 4.85,0.19 0.33,0 1.79,-0.06 4.39,-0.19 0.07,0.19 0.1,0.39 0.1,0.59 0,0.41 -0.06,0.62 -0.17,0.62 -0.19,0 -0.57,0.09 -1.14,0.28 -0.56,0.18 -0.87,0.35 -0.91,0.5 -0.17,0.66 -0.26,1.58 -0.26,2.77l0 12.16c0,1.17 0.09,2.09 0.26,2.76 0.04,0.15 0.34,0.32 0.89,0.49 0.56,0.17 0.93,0.26 1.13,0.26 0.08,0 0.13,0.23 0.13,0.68 0,0.17 -0.03,0.36 -0.1,0.55 -0.19,0 -0.83,-0.04 -1.92,-0.13 -1.09,-0.09 -1.91,-0.13 -2.48,-0.13 -0.58,0 -1.47,0.03 -2.65,0.11 -1.18,0.08 -1.91,0.12 -2.2,0.14 -0.08,-0.08 -0.12,-0.31 -0.11,-0.67 0.01,-0.36 0.06,-0.53 0.14,-0.53 0.24,0 0.64,-0.1 1.2,-0.29 0.57,-0.19 0.88,-0.38 0.94,-0.56 0.13,-0.5 0.19,-1.35 0.19,-2.57zm13.66 -16.94c0.95,0 2.64,-0.03 5.04,-0.08 2.41,-0.06 4.23,-0.08 5.47,-0.08 0.02,0.22 0.33,1.82 0.94,4.82 -0.11,0.11 -0.36,0.16 -0.75,0.16 -0.24,0 -0.39,-0.08 -0.45,-0.23 -0.41,-0.83 -1.06,-1.53 -1.95,-2.12 -0.89,-0.58 -1.75,-0.88 -2.6,-0.88l-1.24 0c-1.37,0 -2.07,0.14 -2.12,0.42 -0.11,0.52 -0.16,1.37 -0.16,2.54l0 5.01c0,0.13 0.47,0.19 1.4,0.19l1.72 0c1.35,0 2.08,-0.04 2.21,-0.13 0.11,-0.09 0.19,-0.4 0.26,-0.94 0.04,-0.33 0.11,-0.64 0.19,-0.94 0.02,-0.15 0.18,-0.23 0.49,-0.23 0.37,0 0.6,0.06 0.72,0.16l0 6.15c-0.09,0.09 -0.32,0.13 -0.68,0.13 -0.28,0 -0.46,-0.08 -0.52,-0.26 -0.09,-0.3 -0.16,-0.56 -0.23,-0.78 -0.07,-0.22 -0.12,-0.38 -0.16,-0.49 -0.04,-0.11 -0.09,-0.21 -0.15,-0.29 -0.06,-0.08 -0.09,-0.14 -0.11,-0.16 -0.02,-0.02 -0.07,-0.05 -0.13,-0.08 -0.07,-0.03 -0.11,-0.06 -0.13,-0.08 -0.28,-0.18 -1.13,-0.26 -2.54,-0.26 -1.56,0 -2.34,0.09 -2.34,0.29l0 5.01c0,1.04 0.09,1.81 0.26,2.31 0.11,0.34 0.84,0.52 2.21,0.52l0.85 0c1.34,0 2.55,-0.28 3.64,-0.85 0.37,-0.19 0.78,-0.56 1.25,-1.1 0.47,-0.54 0.83,-1.15 1.09,-1.82 0.02,-0.13 0.17,-0.19 0.45,-0.19 0.52,0 0.84,0.06 0.97,0.19 -1.06,2.99 -1.64,4.86 -1.75,5.6 -1.1,0 -2.86,-0.02 -5.27,-0.07 -2.41,-0.04 -4.36,-0.07 -5.86,-0.07l-4.75 0.19c-0.09,-0.08 -0.13,-0.27 -0.13,-0.55 0,-0.43 0.04,-0.65 0.13,-0.65 0.26,0 0.67,-0.08 1.22,-0.23 0.56,-0.16 0.87,-0.32 0.93,-0.49 0.13,-0.5 0.2,-1.45 0.2,-2.86l0 -12.3c0,-1.19 -0.07,-2.04 -0.2,-2.54 -0.06,-0.17 -0.38,-0.37 -0.95,-0.58 -0.58,-0.22 -0.98,-0.33 -1.22,-0.33 -0.09,0 -0.13,-0.19 -0.13,-0.58 0,-0.35 0.03,-0.56 0.1,-0.62 1.73,0.11 3.33,0.17 4.78,0.17zm14.74 5.53c0,-1.63 0.72,-3.01 2.16,-4.16 1.44,-1.15 3.03,-1.73 4.77,-1.73 0.46,0 0.93,0.03 1.42,0.1 0.48,0.07 0.9,0.13 1.23,0.19 0.34,0.07 0.81,0.17 1.4,0.31 0.6,0.14 1.07,0.24 1.42,0.31 0.24,2.1 0.36,3.9 0.36,5.4 -0.09,0.22 -0.25,0.33 -0.49,0.33 -0.63,0 -0.97,-0.08 -1.01,-0.23 -0.15,-1.08 -0.62,-2.12 -1.4,-3.1 -0.78,-0.99 -1.74,-1.48 -2.89,-1.48 -0.74,0 -1.37,0.23 -1.87,0.68 -0.51,0.46 -0.77,1.18 -0.77,2.18 0,0.43 0.11,0.86 0.33,1.27 0.22,0.42 0.58,0.84 1.09,1.27 0.51,0.43 0.93,0.76 1.25,0.98 0.33,0.22 0.86,0.56 1.6,1.04 0.19,0.13 0.34,0.23 0.45,0.29 0.17,0.11 0.53,0.33 1.07,0.65 0.54,0.33 0.93,0.57 1.15,0.73 0.23,0.16 0.54,0.43 0.94,0.8 0.4,0.37 0.69,0.73 0.88,1.09 0.18,0.36 0.36,0.82 0.51,1.4 0.15,0.57 0.23,1.21 0.23,1.9 0,1.73 -0.72,3.17 -2.15,4.31 -1.43,1.14 -3.08,1.71 -4.94,1.71 -1.72,0 -3.78,-0.28 -6.18,-0.85 -0.17,-0.69 -0.34,-1.64 -0.51,-2.84 -0.16,-1.2 -0.24,-2.06 -0.24,-2.55 0.06,-0.22 0.26,-0.33 0.58,-0.33 0.67,0 1.02,0.07 1.04,0.19 0.17,1 0.71,2 1.62,3.01 0.92,1.01 1.92,1.52 3.03,1.52 2.15,0 3.22,-1.18 3.22,-3.55 0,-0.37 -0.09,-0.73 -0.29,-1.09 -0.19,-0.36 -0.49,-0.71 -0.88,-1.06 -0.39,-0.34 -0.74,-0.63 -1.04,-0.84 -0.31,-0.22 -0.73,-0.5 -1.28,-0.84 -0.56,-0.35 -0.91,-0.58 -1.06,-0.69 -0.11,-0.06 -0.27,-0.17 -0.49,-0.32 -0.72,-0.48 -1.25,-0.85 -1.63,-1.14 -0.37,-0.28 -0.79,-0.67 -1.28,-1.17 -0.49,-0.5 -0.84,-1.05 -1.04,-1.64 -0.21,-0.59 -0.31,-1.28 -0.31,-2.03z"/>
  <path class="fil0" d="M144.85 12.18c3.15,1.91 6.31,3.81 9.46,5.72 0,27.01 0,46.53 0,73.53 0,26.68 -34.88,8.81 -45.92,33.12 0,-29.31 36.46,-15.84 36.46,-32.73l0 -79.65z"/>
  <path class="fil3" d="M146.71 15.47c1.92,1.16 3.83,2.32 5.75,3.47 0,24.16 0,48.32 0,72.49 0,4.04 -0.81,8.07 -3.99,10.83 -2.56,2.21 -6.22,3.27 -9.46,4.01 -4.24,0.96 -8.54,1.54 -12.77,2.62 -5.94,1.51 -10.95,3.82 -14.78,7.78 1,-2.75 2.71,-5.16 5.41,-7.08 2.48,-1.76 5.42,-2.87 8.32,-3.73 3.58,-1.06 7.27,-1.74 10.84,-2.81 3.17,-0.94 6.59,-2.3 8.68,-4.99 1.41,-1.82 1.99,-3.95 1.99,-6.23l0 -76.36z"/>
  <path class="fil0" d="M108.5 39.83c1.23,-11.83 9.23,-13.76 20.24,-16.2 8.12,-1.79 16.11,-4.21 16.05,-8.51l-0 -2.93c0,6.61 -8.2,7.71 -16.83,9.55 -9.56,2.04 -19.63,4.7 -19.63,15.85 0,-11.16 -10.07,-13.82 -19.63,-15.85 -8.62,-1.84 -16.83,-2.94 -16.83,-9.55l-0 2.93c-0.06,4.31 7.93,6.72 16.05,8.51 11.01,2.43 19.01,4.37 20.24,16.2l0.33 0z"/>
  <g id="_2283795176128">
   <g>
    <polygon class="fil0" points="22.19,147.67 44.94,149.44 41.01,167.6 18.92,154.87 "/>
    <polygon class="fil0" points="195.58,147.67 172.83,149.44 176.76,167.6 198.85,154.87 "/>
    <g>
     <path class="fil6" d="M217.77 157.98l-1.23 0.71c-4.76,2.77 -9.53,5.53 -14.3,8.29l3.35 6.82 -0.47 1.53 -0.68 0.36c-28.8,15.35 -63.1,21.67 -95.5,21.77l-0.13 0c-32.4,-0.11 -66.7,-6.42 -95.5,-21.77l-0.68 -0.36 -0.47 -1.53 3.35 -6.82c-4.77,-2.76 -9.53,-5.53 -14.3,-8.29l-1.23 -0.71 15.8 -6.5 -1.36 -18.93 1.07 0.6c8.16,4.59 16.44,8.98 24.6,13.57l4.84 2.72 -5.5 0.73c-2.9,0.39 -5.88,0.75 -8.74,1.36 -0.68,0.14 -3,0.69 -3.85,1.24 0.27,0.31 0.76,0.69 1.03,0.9 0,0 0.01,0 0.01,0 11.65,5.71 24.31,9.84 36.95,12.69 14.38,3.25 29.23,4.93 43.97,5.01l0.08 0 0.1 -0c14.74,-0.08 29.59,-1.76 43.97,-5.01 12.63,-2.85 25.3,-6.98 36.95,-12.69 0,-0 0.01,-0 0.01,-0 0.27,-0.2 0.76,-0.59 1.03,-0.9 -0.85,-0.55 -3.18,-1.1 -3.85,-1.24 -2.86,-0.61 -5.84,-0.97 -8.74,-1.36l-5.5 -0.73 4.84 -2.72c8.16,-4.59 16.44,-8.98 24.6,-13.57l1.07 -0.6 -1.36 18.93 15.8 6.5z"/>
     <path class="fil7" d="M15.8 151.47c-0.27,-4.86 -0.94,-11.85 -1.2,-16.71 6.73,3.79 17.87,9.78 24.6,13.57 -9.5,1.27 -18.55,2.47 -12.29,6.93 0.05,0.03 0.11,0.06 0.16,0.08 21.52,10.54 50.86,17.82 81.73,17.89l0.1 0 0.1 -0c30.87,-0.07 60.21,-7.34 81.73,-17.89 0.05,-0.03 0.11,-0.05 0.16,-0.08 6.25,-4.46 -2.79,-5.66 -12.29,-6.93 6.73,-3.79 17.87,-9.78 24.6,-13.57 -0.27,4.86 -0.94,11.85 -1.2,16.71 4.55,1.87 9.09,3.74 13.64,5.61 -4.17,2.42 -10.66,6.18 -15.8,9.16l3.79 7.71 -0.03 0.09c-24.14,12.87 -56.59,21.54 -94.63,21.55l-0.06 0 -0.06 -0c-38.05,-0.02 -70.49,-8.68 -94.63,-21.55l-0.03 -0.09 3.79 -7.71c-5.13,-2.98 -11.63,-6.74 -15.8,-9.16 4.55,-1.87 9.09,-3.74 13.64,-5.61z"/>
    </g>
   </g>
   <path class="fil8" d="M30.83 167.98l-1.91 -0.8 -2.68 6.43 -1.57 -0.65 2.68 -6.43 -1.88 -0.79 0.54 -1.3 5.36 2.24 -0.54 1.3zm1.72 4.89l-0.79 -0.3 -1.08 2.86 -1.58 -0.6 2.96 -7.84 2.52 0.95c0.79,0.3 1.33,0.74 1.6,1.31 0.28,0.57 0.27,1.24 -0.01,2 -0.39,1.04 -1.05,1.63 -1.96,1.76l0.16 3.72 -0.03 0.08 -1.7 -0.64 -0.1 -3.3zm-0.29 -1.62l0.9 0.34c0.32,0.12 0.59,0.1 0.83,-0.05 0.24,-0.15 0.42,-0.4 0.56,-0.75 0.3,-0.79 0.14,-1.3 -0.48,-1.53l-0.93 -0.35 -0.88 2.34zm10.85 -0.28l-0.42 1.24c0.23,0.05 0.43,0.05 0.58,-0.02 0.15,-0.06 0.29,-0.18 0.42,-0.37 0.12,-0.18 0.27,-0.52 0.43,-1l1 0.34c-0.3,0.87 -0.66,1.46 -1.09,1.75 -0.43,0.3 -0.98,0.35 -1.64,0.16l-1.07 3.16c-0.3,0.86 -0.77,1.46 -1.4,1.8 -0.63,0.33 -1.35,0.37 -2.15,0.1 -0.81,-0.27 -1.36,-0.74 -1.66,-1.39 -0.3,-0.65 -0.3,-1.41 -0.02,-2.28l1.79 -5.27 1.61 0.55 -1.82 5.34c-0.29,0.92 -0.11,1.5 0.54,1.72 0.65,0.22 1.14,-0.12 1.47,-1.03l1.82 -5.34 1.6 0.54zm6 6.41c-0.24,0.79 -0.57,1.44 -0.99,1.96 -0.42,0.52 -0.91,0.88 -1.45,1.06 -0.55,0.19 -1.11,0.2 -1.68,0.02 -0.57,-0.17 -1.03,-0.49 -1.38,-0.94 -0.35,-0.46 -0.56,-1.02 -0.62,-1.68 -0.07,-0.67 0.02,-1.38 0.25,-2.16l0.12 -0.4c0.24,-0.78 0.57,-1.43 0.99,-1.96 0.43,-0.53 0.91,-0.88 1.46,-1.08 0.54,-0.19 1.11,-0.2 1.68,-0.02 0.85,0.26 1.44,0.81 1.77,1.65 0.2,-0.04 0.37,-0.17 0.52,-0.41 0.15,-0.24 0.28,-0.56 0.4,-0.96l1.03 0.32c-0.37,1.22 -0.95,1.89 -1.73,1.98 0.08,0.67 -0,1.41 -0.24,2.2l-0.13 0.42zm-1.53 -0.86c0.26,-0.84 0.34,-1.51 0.25,-2.02 -0.09,-0.5 -0.35,-0.82 -0.76,-0.94 -0.41,-0.13 -0.8,-0.01 -1.15,0.35 -0.35,0.36 -0.66,0.95 -0.91,1.78l-0.12 0.4c-0.25,0.83 -0.34,1.51 -0.24,2.02 0.09,0.51 0.35,0.83 0.77,0.96 0.41,0.13 0.8,0.01 1.15,-0.36 0.35,-0.37 0.66,-0.96 0.91,-1.78l0.12 -0.4zm0.82 -4.44l-1.32 -0.4 -1 -2.17 1.75 0.53 0.57 2.03zm6.5 10.97l-1.63 -0.44 -0.95 -5.95 -1.44 5.3 -1.63 -0.44 2.2 -8.09 1.63 0.44 0.95 5.96 1.44 -5.31 1.63 0.44 -2.2 8.09zm7.16 0.55c-0.39,0.28 -0.84,0.46 -1.34,0.53 -0.5,0.08 -1.03,0.06 -1.58,-0.06 -0.94,-0.2 -1.61,-0.64 -2.01,-1.34 -0.4,-0.69 -0.49,-1.6 -0.27,-2.72l0.31 -1.48c0.24,-1.13 0.67,-1.95 1.29,-2.46 0.62,-0.51 1.4,-0.66 2.35,-0.46 0.89,0.19 1.51,0.55 1.88,1.08 0.36,0.53 0.48,1.28 0.35,2.23l-1.61 -0.34c0.07,-0.53 0.03,-0.91 -0.1,-1.14 -0.13,-0.23 -0.38,-0.38 -0.75,-0.45 -0.45,-0.09 -0.81,0 -1.08,0.29 -0.27,0.28 -0.49,0.78 -0.64,1.5l-0.31 1.49c-0.16,0.75 -0.16,1.32 -0.01,1.7 0.15,0.39 0.48,0.64 0.99,0.74 0.33,0.07 0.6,0.06 0.84,-0.03l0.17 -0.07 0.32 -1.51 -1.16 -0.24 0.26 -1.25 2.82 0.59 -0.71 3.39zm9.94 -4.26l-2.04 -0.37 -1.23 6.85 -1.67 -0.3 1.23 -6.85 -2.01 -0.36 0.25 -1.39 5.71 1.03 -0.25 1.39zm5.6 7.87l-1.67 -0.25 0.54 -3.54 -2.47 -0.37 -0.54 3.54 -1.67 -0.25 1.26 -8.28 1.67 0.25 -0.51 3.36 2.47 0.37 0.51 -3.36 1.67 0.25 -1.26 8.28zm3.46 -2.57l-0.36 2.92 -1.68 -0.21 1.03 -8.31 2.83 0.35c0.82,0.1 1.45,0.44 1.87,1.01 0.43,0.57 0.59,1.26 0.49,2.08 -0.1,0.81 -0.42,1.43 -0.96,1.84 -0.54,0.41 -1.24,0.56 -2.1,0.46l-1.12 -0.14zm0.17 -1.4l1.15 0.14c0.32,0.04 0.58,-0.03 0.78,-0.22 0.2,-0.19 0.33,-0.48 0.38,-0.88 0.05,-0.41 0,-0.75 -0.15,-1.02 -0.15,-0.27 -0.37,-0.42 -0.67,-0.46l-1.17 -0.14 -0.32 2.58zm10.58 -1.54l-2.06 -0.2 -0.67 6.93 -1.69 -0.16 0.67 -6.93 -2.03 -0.2 0.14 -1.41 5.78 0.56 -0.14 1.41zm5.23 4l-0.7 0.81 -0.1 2.39 -1.69 -0.07 0.36 -8.37 1.69 0.07 -0.16 3.65 0.58 -0.88 1.68 -2.68 2.07 0.09 -2.56 3.57 2.23 4.8 -2 -0.09 -1.39 -3.3zm9.95 3.53l-1.69 -0.03 0.06 -3.58 -2.5 -0.04 -0.06 3.58 -1.69 -0.03 0.15 -8.38 1.69 0.03 -0.06 3.39 2.5 0.04 0.06 -3.39 1.69 0.03 -0.15 8.38zm7.29 -3.48c0.01,1.13 -0.25,2 -0.77,2.63 -0.52,0.63 -1.26,0.94 -2.2,0.95 -0.94,0.01 -1.68,-0.29 -2.22,-0.91 -0.54,-0.61 -0.82,-1.47 -0.84,-2.58l-0.01 -1.43c-0.01,-1.15 0.25,-2.05 0.78,-2.71 0.53,-0.65 1.27,-0.98 2.21,-0.99 0.93,-0.01 1.67,0.3 2.21,0.93 0.54,0.63 0.82,1.52 0.84,2.67l0.01 1.43zm-1.71 -1.39c-0.01,-0.76 -0.12,-1.32 -0.34,-1.68 -0.22,-0.37 -0.55,-0.55 -1.01,-0.54 -0.45,0 -0.78,0.18 -0.99,0.54 -0.21,0.36 -0.32,0.9 -0.32,1.62l0.01 1.49c0.01,0.73 0.12,1.27 0.34,1.62 0.22,0.35 0.56,0.52 1.02,0.51 0.44,-0 0.77,-0.18 0.98,-0.52 0.21,-0.34 0.32,-0.87 0.31,-1.58l-0.01 -1.46zm6.83 2.94l-2.31 0.08 -0.39 1.72 -1.79 0.06 2.32 -8.46 1.55 -0.05 2.93 8.28 -1.81 0.06 -0.51 -1.69zm-1.99 -1.34l1.56 -0.06 -0.89 -2.96 -0.68 3.01zm13.71 2.25l-1.68 0.15 -0.32 -3.57 -2.49 0.22 0.32 3.57 -1.68 0.15 -0.74 -8.35 1.68 -0.15 0.3 3.38 2.49 -0.22 -0.3 -3.38 1.68 -0.15 0.74 8.35zm6.88 -4.2c0.13,1.12 -0.03,2.01 -0.49,2.69 -0.45,0.68 -1.15,1.07 -2.09,1.18 -0.93,0.11 -1.7,-0.11 -2.31,-0.66 -0.6,-0.55 -0.97,-1.38 -1.11,-2.47l-0.17 -1.42c-0.13,-1.15 0.03,-2.07 0.48,-2.77 0.46,-0.7 1.15,-1.11 2.09,-1.22 0.93,-0.11 1.69,0.12 2.3,0.69 0.61,0.57 0.98,1.42 1.12,2.56l0.17 1.42zm-1.85 -1.2c-0.09,-0.75 -0.26,-1.3 -0.51,-1.64 -0.25,-0.34 -0.61,-0.48 -1.06,-0.43 -0.44,0.05 -0.75,0.27 -0.93,0.64 -0.17,0.38 -0.22,0.93 -0.15,1.65l0.17 1.48c0.08,0.73 0.26,1.25 0.51,1.57 0.26,0.32 0.61,0.45 1.07,0.4 0.44,-0.05 0.75,-0.26 0.92,-0.62 0.17,-0.36 0.22,-0.9 0.14,-1.61l-0.17 -1.45zm-0.68 5.5c0.28,-0.03 0.51,0.02 0.7,0.15 0.19,0.13 0.3,0.31 0.33,0.54 0.03,0.23 -0.04,0.43 -0.2,0.6 -0.16,0.17 -0.37,0.27 -0.65,0.31 -0.27,0.03 -0.51,-0.02 -0.7,-0.15 -0.19,-0.13 -0.3,-0.31 -0.33,-0.54 -0.03,-0.23 0.04,-0.43 0.19,-0.6 0.16,-0.17 0.37,-0.27 0.65,-0.3zm9.41 -4.6c0.1,0.95 -0.07,1.71 -0.49,2.26 -0.42,0.56 -1.08,0.9 -1.97,1.03 -0.94,0.14 -1.7,-0.07 -2.29,-0.62 -0.59,-0.55 -0.96,-1.39 -1.13,-2.53l-0.2 -1.4c-0.16,-1.14 -0.03,-2.05 0.39,-2.75 0.43,-0.69 1.1,-1.1 2.02,-1.23 0.9,-0.13 1.63,0.02 2.17,0.46 0.54,0.44 0.91,1.13 1.11,2.06l-1.68 0.24c-0.1,-0.58 -0.25,-0.97 -0.44,-1.17 -0.2,-0.2 -0.52,-0.27 -0.96,-0.2 -0.45,0.06 -0.74,0.27 -0.88,0.61 -0.14,0.34 -0.16,0.87 -0.07,1.59l0.23 1.57c0.12,0.82 0.29,1.38 0.52,1.66 0.23,0.28 0.57,0.39 1.01,0.33 0.44,-0.06 0.73,-0.21 0.87,-0.45 0.14,-0.24 0.17,-0.64 0.12,-1.21l1.67 -0.24zm9.62 0.22c-0.26,0.4 -0.61,0.73 -1.05,0.99 -0.44,0.26 -0.93,0.43 -1.49,0.53 -0.95,0.16 -1.74,-0 -2.36,-0.5 -0.63,-0.5 -1.04,-1.31 -1.25,-2.43l-0.26 -1.49c-0.2,-1.14 -0.1,-2.06 0.29,-2.76 0.39,-0.7 1.06,-1.13 2.01,-1.3 0.9,-0.16 1.61,-0.05 2.14,0.31 0.53,0.36 0.91,1.01 1.15,1.95l-1.62 0.28c-0.14,-0.52 -0.31,-0.86 -0.52,-1.02 -0.21,-0.16 -0.49,-0.21 -0.86,-0.15 -0.45,0.08 -0.75,0.3 -0.9,0.66 -0.15,0.36 -0.16,0.91 -0.05,1.63l0.26 1.5c0.13,0.75 0.34,1.28 0.62,1.58 0.28,0.3 0.68,0.41 1.2,0.32 0.33,-0.06 0.58,-0.17 0.76,-0.34l0.13 -0.13 -0.26 -1.52 -1.17 0.2 -0.22 -1.25 2.84 -0.49 0.59 3.41zm3.11 0.25l-1.66 0.34 -1.66 -8.21 1.66 -0.34 1.66 8.21zm5.06 -2.92l-2.25 0.52 -0.05 1.77 -1.74 0.41 0.65 -8.75 1.51 -0.35 4.47 7.56 -1.76 0.41 -0.82 -1.56zm-2.21 -0.94l1.52 -0.36 -1.44 -2.73 -0.08 3.09zm-0.6 -7.56l1.78 -0.42 -1.15 2.1 -1.32 0.31 0.69 -1.99zm10.91 4.59c0.29,1.09 0.26,2 -0.1,2.74 -0.35,0.74 -0.99,1.23 -1.9,1.47 -0.91,0.24 -1.7,0.13 -2.38,-0.33 -0.68,-0.46 -1.16,-1.22 -1.45,-2.29l-0.37 -1.39c-0.3,-1.11 -0.27,-2.05 0.08,-2.81 0.35,-0.76 0.98,-1.26 1.9,-1.51 0.9,-0.24 1.69,-0.12 2.37,0.36 0.68,0.48 1.17,1.27 1.48,2.38l0.37 1.39zm-2 -0.93c-0.19,-0.73 -0.44,-1.25 -0.74,-1.55 -0.3,-0.3 -0.67,-0.39 -1.11,-0.28 -0.43,0.11 -0.71,0.37 -0.83,0.77 -0.12,0.4 -0.09,0.95 0.09,1.65l0.38 1.44c0.19,0.71 0.43,1.2 0.73,1.48 0.3,0.28 0.67,0.36 1.11,0.24 0.43,-0.11 0.7,-0.36 0.82,-0.74 0.12,-0.38 0.09,-0.92 -0.09,-1.61l-0.37 -1.41zm6.7 3.07l-2.66 -7.95 2.1 -0.7c0.93,-0.31 1.77,-0.26 2.51,0.14 0.75,0.4 1.3,1.12 1.65,2.14l0.43 1.29c0.35,1.05 0.35,1.96 -0,2.73 -0.35,0.78 -1.01,1.33 -1.98,1.65l-2.06 0.69zm-0.6 -7.14l1.76 5.27 0.48 -0.16c0.53,-0.18 0.86,-0.45 0.99,-0.8 0.12,-0.35 0.08,-0.88 -0.14,-1.57l-0.46 -1.38c-0.25,-0.74 -0.53,-1.22 -0.83,-1.45 -0.3,-0.22 -0.71,-0.26 -1.21,-0.11l-0.59 0.2zm9.16 -4.75l2.02 5.44c0.3,0.82 0.3,1.53 0.02,2.13 -0.28,0.6 -0.84,1.05 -1.66,1.36 -0.84,0.31 -1.56,0.33 -2.17,0.06 -0.61,-0.27 -1.06,-0.83 -1.37,-1.66l-2.01 -5.4 1.6 -0.59 2.01 5.41c0.17,0.45 0.36,0.74 0.57,0.88 0.21,0.14 0.51,0.13 0.89,-0.01 0.38,-0.14 0.6,-0.33 0.67,-0.57 0.07,-0.24 0.03,-0.58 -0.13,-1.01l-2.02 -5.43 1.59 -0.59zm0.5 9.33c0.26,-0.1 0.5,-0.1 0.72,-0.02 0.22,0.08 0.37,0.23 0.45,0.45 0.08,0.22 0.06,0.43 -0.05,0.63 -0.11,0.2 -0.3,0.35 -0.56,0.45 -0.26,0.1 -0.5,0.1 -0.71,0.02 -0.22,-0.08 -0.36,-0.23 -0.44,-0.45 -0.08,-0.22 -0.07,-0.43 0.04,-0.63 0.11,-0.2 0.3,-0.35 0.55,-0.45zm7.86 -6.72c0.33,0.9 0.35,1.67 0.08,2.31 -0.27,0.64 -0.82,1.14 -1.66,1.48 -0.88,0.36 -1.67,0.35 -2.37,-0.03 -0.7,-0.38 -1.28,-1.11 -1.72,-2.18l-0.54 -1.31c-0.44,-1.06 -0.53,-1.98 -0.29,-2.76 0.25,-0.77 0.8,-1.34 1.66,-1.69 0.84,-0.35 1.58,-0.38 2.21,-0.09 0.63,0.29 1.16,0.87 1.58,1.72l-1.57 0.65c-0.24,-0.54 -0.48,-0.88 -0.72,-1.03 -0.24,-0.14 -0.57,-0.13 -0.98,0.04 -0.42,0.17 -0.66,0.44 -0.71,0.81 -0.05,0.37 0.05,0.88 0.32,1.56l0.6 1.47c0.32,0.77 0.62,1.27 0.91,1.48 0.29,0.22 0.64,0.24 1.06,0.07 0.41,-0.17 0.65,-0.39 0.73,-0.65 0.07,-0.26 0.01,-0.66 -0.18,-1.2l1.56 -0.64z"/>
   <path class="fil9" d="M14.2 167.92c52.43,27.84 134.18,28.98 189.38,0"/>
  </g>
  <polygon class="fil5" points="267.38,24.98 260.95,24.98 260.95,46.6 255.68,46.6 255.68,24.98 249.35,24.98 249.35,20.59 267.38,20.59 "/>
  <path id="1" class="fil5" d="M280.06 37.13l-2.61 0 0 9.48 -5.25 0 0 -26.01 8.38 0c2.63,0 4.66,0.68 6.1,2.05 1.43,1.37 2.15,3.31 2.15,5.82 0,3.46 -1.26,5.88 -3.77,7.27l4.55 10.62 0 0.25 -5.65 0 -3.91 -9.48zm-2.61 -4.39l2.98 0c1.05,0 1.84,-0.35 2.36,-1.04 0.52,-0.7 0.79,-1.63 0.79,-2.8 0,-2.61 -1.02,-3.91 -3.05,-3.91l-3.07 0 0 7.76z"/>
  <path id="2" class="fil5" d="M311.12 20.59l0 4.06c0.74,-0.09 1.3,-0.29 1.7,-0.63 0.39,-0.34 0.68,-0.84 0.85,-1.49 0.18,-0.65 0.27,-1.78 0.27,-3.37l3.29 0c0,2.85 -0.48,4.94 -1.44,6.24 -0.96,1.3 -2.52,2.01 -4.66,2.12l0 10.35c-0.02,2.83 -0.8,5.06 -2.32,6.68 -1.52,1.62 -3.59,2.43 -6.21,2.43 -2.65,0 -4.73,-0.8 -6.26,-2.42 -1.53,-1.62 -2.3,-3.84 -2.33,-6.68l0 -17.28 5.29 0 0 17.52c0.07,3.01 1.17,4.51 3.3,4.51 2.12,0 3.21,-1.5 3.29,-4.51l0 -17.52 5.25 0z"/>
  <path id="3" class="fil5" d="M337.16 34.18c0,2.55 -0.39,4.79 -1.17,6.72 -0.78,1.93 -1.9,3.42 -3.35,4.48 -1.45,1.05 -3.12,1.59 -4.98,1.59 -1.85,0 -3.5,-0.52 -4.95,-1.56 -1.45,-1.04 -2.58,-2.51 -3.38,-4.43 -0.8,-1.92 -1.2,-4.13 -1.21,-6.63l0 -1.3c0,-2.52 0.4,-4.76 1.18,-6.71 0.79,-1.94 1.9,-3.45 3.35,-4.51 1.44,-1.06 3.1,-1.59 4.97,-1.59 2.75,0 5,1.1 6.75,3.29 0.56,-0.29 0.95,-0.85 1.16,-1.7 0.21,-0.85 0.32,-1.91 0.32,-3.2l3.36 0c0,3.98 -1.12,6.46 -3.34,7.46 0.84,1.93 1.26,4.18 1.29,6.74l0 1.36zm-5.32 -1.18c0,-2.73 -0.37,-4.8 -1.1,-6.21 -0.73,-1.41 -1.77,-2.11 -3.12,-2.11 -1.35,0 -2.38,0.69 -3.1,2.07 -0.72,1.38 -1.09,3.43 -1.1,6.12l0 1.3c0,2.71 0.37,4.77 1.1,6.21 0.74,1.43 1.78,2.15 3.14,2.15 1.34,0 2.37,-0.7 3.09,-2.11 0.72,-1.41 1.08,-3.45 1.09,-6.12l0 -1.3zm-1.59 -13.93l-4.27 0.02 -4.93 -5.52 5.66 0 3.54 5.51z"/>
  <polygon id="4" class="fil5" points="361.07,46.6 355.82,46.6 348.14,29.54 348.14,46.6 342.89,46.6 342.89,20.59 348.14,20.59 355.84,37.67 355.84,20.59 361.07,20.59 "/>
  <path id="5" class="fil5" d="M384.75 43.66c-1.01,1.09 -2.25,1.92 -3.73,2.48 -1.47,0.55 -3.08,0.83 -4.83,0.83 -2.99,0 -5.31,-0.93 -6.97,-2.78 -1.65,-1.85 -2.51,-4.55 -2.55,-8.09l0 -4.68c0,-3.58 0.79,-6.35 2.35,-8.29 1.57,-1.93 3.85,-2.9 6.85,-2.9 2.82,0 4.95,0.7 6.39,2.09 1.43,1.4 2.26,3.58 2.49,6.56l-5.11 0c-0.14,-1.66 -0.49,-2.79 -1.04,-3.4 -0.54,-0.6 -1.4,-0.9 -2.57,-0.9 -1.42,0 -2.45,0.52 -3.09,1.56 -0.65,1.04 -0.98,2.69 -1,4.96l0 4.73c0,2.37 0.35,4.1 1.06,5.18 0.71,1.08 1.87,1.62 3.49,1.62 1.04,0 1.87,-0.21 2.52,-0.63l0.46 -0.32 0 -4.79 -3.68 0 0 -3.95 8.94 0 0 10.74z"/>
  <path id="6" class="fil5" d="M399.22 46.6l0 -11.45 -2.79 0 0 -3.26 2.79 0 0 -11.3 6.88 0c3.04,0 5.46,0.96 7.26,2.9 1.8,1.93 2.73,4.57 2.76,7.93l0 4.21c0,3.42 -0.9,6.1 -2.7,8.05 -1.8,1.94 -4.29,2.92 -7.46,2.92l-6.73 0zm8.05 -11.45l-2.8 0 0 7.1 1.82 0c1.66,-0.04 2.82,-0.52 3.5,-1.46 0.68,-0.93 1.04,-2.52 1.07,-4.76l0 -4.46c0,-2.43 -0.34,-4.12 -1.02,-5.09 -0.68,-0.96 -1.84,-1.46 -3.46,-1.51l-1.91 0 0 6.91 2.8 0 0 3.26z"/>
  <path id="7" class="fil5" d="M433.7 41.3l-7.16 0 -1.39 5.3 -5.55 0 8.12 -26.01 4.81 0 8.18 26.01 -5.61 0 -1.39 -5.3zm-6.02 -4.39l4.86 0 -2.43 -9.28 -2.43 9.28zm2.49 11.27c0.87,0 1.57,0.24 2.12,0.71 0.54,0.47 0.82,1.07 0.82,1.78 0,0.71 -0.27,1.31 -0.82,1.78 -0.54,0.47 -1.24,0.71 -2.12,0.71 -0.85,0 -1.55,-0.24 -2.1,-0.71 -0.54,-0.47 -0.81,-1.07 -0.81,-1.78 0,-0.71 0.27,-1.31 0.81,-1.78 0.54,-0.47 1.24,-0.71 2.1,-0.71z"/>
  <polygon id="8" class="fil5" points="450.39,46.6 445.14,46.6 445.14,20.59 450.39,20.59 "/>
  <polygon id="9" class="fil5" points="483.25,46.6 478.01,46.6 478.01,35.48 470.26,35.48 470.26,46.6 465.01,46.6 465.01,20.59 470.26,20.59 470.26,31.13 478.01,31.13 478.01,20.59 483.25,20.59 "/>
  <path id="10" class="fil5" d="M507.56 35.94c0,3.49 -0.82,6.2 -2.48,8.13 -1.65,1.93 -3.94,2.9 -6.87,2.9 -2.92,0 -5.21,-0.96 -6.88,-2.87 -1.66,-1.91 -2.51,-4.59 -2.54,-8.03l0 -4.45c0,-3.58 0.83,-6.37 2.48,-8.38 1.66,-2.01 3.96,-3.01 6.9,-3.01 2.9,0 5.18,0.99 6.84,2.96 1.67,1.98 2.51,4.74 2.54,8.3l0 4.45zm-5.27 -4.37c0,-2.35 -0.34,-4.09 -1,-5.24 -0.66,-1.14 -1.7,-1.71 -3.11,-1.71 -1.39,0 -2.42,0.55 -3.09,1.65 -0.66,1.1 -1.01,2.78 -1.04,5.03l0 4.63c0,2.28 0.34,3.96 1.02,5.04 0.68,1.08 1.73,1.62 3.15,1.62 1.37,0 2.39,-0.52 3.05,-1.58 0.66,-1.05 1.01,-2.69 1.02,-4.91l0 -4.52zm-4.05 16.72c0.87,0 1.57,0.24 2.12,0.71 0.54,0.47 0.82,1.07 0.82,1.78 0,0.71 -0.27,1.31 -0.82,1.78 -0.54,0.47 -1.24,0.71 -2.12,0.71 -0.85,0 -1.55,-0.24 -2.1,-0.71 -0.54,-0.47 -0.81,-1.07 -0.81,-1.78 0,-0.71 0.27,-1.31 0.81,-1.78 0.54,-0.47 1.24,-0.71 2.1,-0.71z"/>
  <path id="11" class="fil5" d="M530.71 37.95c-0.13,2.97 -0.96,5.21 -2.5,6.73 -1.54,1.52 -3.7,2.29 -6.5,2.29 -2.94,0 -5.19,-0.97 -6.76,-2.9 -1.57,-1.94 -2.35,-4.7 -2.35,-8.29l0 -4.38c0,-3.57 0.81,-6.33 2.43,-8.27 1.62,-1.93 3.87,-2.9 6.76,-2.9 2.83,0 4.99,0.79 6.46,2.37 1.47,1.59 2.3,3.86 2.51,6.82l-5.27 0c-0.05,-1.84 -0.33,-3.1 -0.85,-3.8 -0.52,-0.69 -1.47,-1.04 -2.85,-1.04 -1.41,0 -2.4,0.49 -2.99,1.48 -0.58,0.99 -0.89,2.6 -0.93,4.86l0 4.92c0,2.59 0.29,4.37 0.87,5.33 0.58,0.97 1.57,1.45 2.98,1.45 1.38,0 2.34,-0.34 2.86,-1.01 0.52,-0.67 0.82,-1.89 0.89,-3.65l5.25 0z"/>
  <path id="12" class="fil5" d="M561.85 43.66c-1.01,1.09 -2.25,1.92 -3.73,2.48 -1.47,0.55 -3.08,0.83 -4.83,0.83 -2.99,0 -5.31,-0.93 -6.97,-2.78 -1.65,-1.85 -2.51,-4.55 -2.55,-8.09l0 -4.68c0,-3.58 0.79,-6.35 2.35,-8.29 1.57,-1.93 3.85,-2.9 6.85,-2.9 2.82,0 4.95,0.7 6.39,2.09 1.43,1.4 2.26,3.58 2.49,6.56l-5.11 0c-0.14,-1.66 -0.49,-2.79 -1.04,-3.4 -0.54,-0.6 -1.4,-0.9 -2.57,-0.9 -1.42,0 -2.45,0.52 -3.09,1.56 -0.65,1.04 -0.98,2.69 -1,4.96l0 4.73c0,2.37 0.35,4.1 1.06,5.18 0.71,1.08 1.87,1.62 3.49,1.62 1.04,0 1.87,-0.21 2.52,-0.63l0.46 -0.32 0 -4.79 -3.68 0 0 -3.95 8.94 0 0 10.74z"/>
  <polygon id="13" class="fil5" points="572.82,46.6 567.57,46.6 567.57,20.59 572.82,20.59 "/>
  <path id="14" class="fil5" d="M591.75 41.3l-7.16 0 -1.39 5.3 -5.55 0 8.12 -26.01 4.81 0 8.18 26.01 -5.61 0 -1.39 -5.3zm-6.02 -4.39l4.86 0 -2.43 -9.28 -2.43 9.28zm3.51 -23.27l5.68 0 -4.97 5.52 -4.21 0 3.5 -5.52z"/>
  <path id="15" class="fil5" d="M620.9 35.94c0,3.49 -0.82,6.2 -2.48,8.13 -1.65,1.93 -3.94,2.9 -6.87,2.9 -2.92,0 -5.21,-0.96 -6.88,-2.87 -1.66,-1.91 -2.51,-4.59 -2.54,-8.03l0 -4.45c0,-3.58 0.83,-6.37 2.48,-8.38 1.66,-2.01 3.96,-3.01 6.9,-3.01 2.9,0 5.18,0.99 6.84,2.96 1.67,1.98 2.51,4.74 2.54,8.3l0 4.45zm-5.27 -4.37c0,-2.35 -0.34,-4.09 -1,-5.24 -0.66,-1.14 -1.7,-1.71 -3.11,-1.71 -1.39,0 -2.42,0.55 -3.09,1.65 -0.66,1.1 -1.01,2.78 -1.04,5.03l0 4.63c0,2.28 0.34,3.96 1.02,5.04 0.68,1.08 1.73,1.62 3.15,1.62 1.37,0 2.39,-0.52 3.05,-1.58 0.66,-1.05 1.01,-2.69 1.02,-4.91l0 -4.52z"/>
  <path id="16" class="fil5" d="M634.87 46.6l0 -26.01 6.88 0c3.04,0 5.46,0.96 7.26,2.9 1.8,1.93 2.73,4.57 2.76,7.93l0 4.21c0,3.42 -0.9,6.1 -2.7,8.05 -1.8,1.94 -4.29,2.92 -7.46,2.92l-6.73 0zm5.25 -21.62l0 17.27 1.57 0c1.75,0 2.98,-0.46 3.7,-1.38 0.71,-0.92 1.09,-2.51 1.12,-4.77l0 -4.52c0,-2.43 -0.34,-4.12 -1.02,-5.09 -0.68,-0.96 -1.84,-1.46 -3.46,-1.51l-1.91 0z"/>
  <path id="17" class="fil5" d="M674.22 20.59l0 18.01c-0.02,2.71 -0.77,4.77 -2.23,6.21 -1.46,1.43 -3.57,2.15 -6.3,2.15 -2.79,0 -4.91,-0.73 -6.39,-2.18 -1.47,-1.45 -2.2,-3.55 -2.2,-6.3l0 -17.89 5.29 0 0 17.91c0,1.48 0.24,2.53 0.71,3.16 0.48,0.63 1.34,0.94 2.59,0.94 1.25,0 2.11,-0.31 2.57,-0.94 0.46,-0.63 0.7,-1.65 0.71,-3.09l0 -18 5.25 0zm-8.65 27.69c0.87,0 1.57,0.24 2.12,0.71 0.54,0.47 0.82,1.07 0.82,1.78 0,0.71 -0.27,1.31 -0.82,1.78 -0.54,0.47 -1.24,0.71 -2.12,0.71 -0.85,0 -1.56,-0.24 -2.1,-0.71 -0.54,-0.47 -0.81,-1.07 -0.81,-1.78 0,-0.71 0.27,-1.31 0.81,-1.78 0.54,-0.47 1.24,-0.71 2.1,-0.71z"/>
  <path id="18" class="fil5" d="M697.61 37.95c-0.13,2.97 -0.96,5.21 -2.5,6.73 -1.54,1.52 -3.7,2.29 -6.5,2.29 -2.94,0 -5.19,-0.97 -6.76,-2.9 -1.57,-1.94 -2.35,-4.7 -2.35,-8.29l0 -4.38c0,-3.57 0.81,-6.33 2.43,-8.27 1.62,-1.93 3.87,-2.9 6.76,-2.9 2.83,0 4.99,0.79 6.46,2.37 1.47,1.59 2.3,3.86 2.51,6.82l-5.27 0c-0.05,-1.84 -0.33,-3.1 -0.85,-3.8 -0.52,-0.69 -1.47,-1.04 -2.85,-1.04 -1.41,0 -2.4,0.49 -2.99,1.48 -0.58,0.99 -0.89,2.6 -0.93,4.86l0 4.92c0,2.59 0.29,4.37 0.87,5.33 0.58,0.97 1.57,1.45 2.98,1.45 1.38,0 2.34,-0.34 2.86,-1.01 0.52,-0.67 0.82,-1.89 0.89,-3.65l5.25 0z"/>
  <polygon id="19" class="fil5" points="719.9,37.53 711.16,37.53 711.16,33.36 719.9,33.36 "/>
  <path id="20" class="fil5" d="M735.1 46.6l0 -11.45 -2.79 0 0 -3.26 2.79 0 0 -11.3 6.88 0c3.04,0 5.46,0.96 7.26,2.9 1.8,1.93 2.73,4.57 2.76,7.93l0 4.21c0,3.42 -0.9,6.1 -2.7,8.05 -1.8,1.94 -4.29,2.92 -7.46,2.92l-6.73 0zm8.05 -11.45l-2.8 0 0 7.1 1.82 0c1.66,-0.04 2.82,-0.52 3.5,-1.46 0.68,-0.93 1.04,-2.52 1.07,-4.76l0 -4.46c0,-2.43 -0.34,-4.12 -1.02,-5.09 -0.68,-0.96 -1.84,-1.46 -3.46,-1.51l-1.91 0 0 6.91 2.8 0 0 3.26z"/>
  <polygon id="21" class="fil5" points="775.78,46.6 770.55,46.6 770.55,35.48 762.79,35.48 762.79,46.6 757.54,46.6 757.54,20.59 762.79,20.59 762.79,31.13 770.55,31.13 770.55,20.59 775.78,20.59 "/>
  <path id="22" class="fil5" d="M800.07 35.61c0,4.3 -1.16,7.43 -3.48,9.38l3.59 3.22 -3.3 3.04 -4.79 -4.38 -1.38 0.09c-2.94,0 -5.24,-1 -6.9,-2.99 -1.66,-1.99 -2.5,-4.76 -2.51,-8.29l0 -4.07c0,-3.58 0.83,-6.37 2.48,-8.38 1.66,-2.01 3.96,-3.01 6.9,-3.01 2.87,0 5.14,0.96 6.8,2.9 1.67,1.93 2.54,4.64 2.59,8.13l0 4.36zm-5.27 -4.05c0,-2.37 -0.34,-4.12 -1.02,-5.26 -0.68,-1.13 -1.71,-1.7 -3.11,-1.7 -1.39,0 -2.42,0.55 -3.09,1.65 -0.66,1.1 -1.01,2.78 -1.03,5.03l0 4.31c0,2.38 0.34,4.14 1.02,5.27 0.68,1.13 1.73,1.7 3.13,1.7 1.37,0 2.39,-0.56 3.07,-1.69 0.67,-1.13 1.01,-2.85 1.02,-5.16l0 -4.16z"/>
  <path id="23" class="fil5" d="M823.31 43.66c-1.01,1.09 -2.25,1.92 -3.73,2.48 -1.47,0.55 -3.08,0.83 -4.83,0.83 -2.99,0 -5.31,-0.93 -6.97,-2.78 -1.65,-1.85 -2.51,-4.55 -2.55,-8.09l0 -4.68c0,-3.58 0.79,-6.35 2.35,-8.29 1.57,-1.93 3.85,-2.9 6.85,-2.9 2.82,0 4.95,0.7 6.39,2.09 1.43,1.4 2.26,3.58 2.49,6.56l-5.11 0c-0.14,-1.66 -0.49,-2.79 -1.04,-3.4 -0.54,-0.6 -1.4,-0.9 -2.57,-0.9 -1.42,0 -2.45,0.52 -3.09,1.56 -0.65,1.04 -0.98,2.69 -1,4.96l0 4.73c0,2.37 0.35,4.1 1.06,5.18 0.71,1.08 1.87,1.62 3.49,1.62 1.04,0 1.87,-0.21 2.52,-0.63l0.46 -0.32 0 -4.79 -3.68 0 0 -3.95 8.94 0 0 10.74z"/>
  <polygon id="24" class="fil5" points="847.04,46.6 841.81,46.6 841.81,35.48 834.05,35.48 834.05,46.6 828.8,46.6 828.8,20.59 834.05,20.59 834.05,31.13 841.81,31.13 841.81,20.59 847.04,20.59 "/>
  <polygon id="25" class="fil5" points="871.21,46.6 865.96,46.6 858.28,29.54 858.28,46.6 853.03,46.6 853.03,20.59 858.28,20.59 865.98,37.67 865.98,20.59 871.21,20.59 "/>
  <polygon class="fil5" points="275.09,77.78 265.75,77.78 265.75,103.11 258.25,103.11 258.25,77.78 249.09,77.78 249.09,72 275.09,72 "/>
  <path id="1" class="fil5" d="M289.79 92.13l-4.05 0 0 10.98 -7.5 0 0 -31.1 12.24 0c3.69,0 6.57,0.82 8.65,2.46 2.08,1.64 3.11,3.95 3.11,6.94 0,2.17 -0.44,3.96 -1.31,5.39 -0.87,1.42 -2.25,2.57 -4.11,3.46l6.5 12.54 0 0.32 -8.03 0 -5.49 -10.98zm-4.05 -5.77l4.74 0c1.42,0 2.49,-0.37 3.22,-1.12 0.72,-0.75 1.08,-1.8 1.08,-3.14 0,-1.34 -0.36,-2.4 -1.09,-3.16 -0.72,-0.77 -1.79,-1.14 -3.2,-1.14l-4.74 0 0 8.57z"/>
  <path id="2" class="fil5" d="M331.18 72l0 4.94c1.04,-0.07 1.84,-0.31 2.41,-0.71 0.57,-0.39 0.98,-0.96 1.22,-1.7 0.24,-0.73 0.36,-2.16 0.36,-4.28l4.37 0c0,3.59 -0.67,6.16 -2.01,7.71 -1.35,1.55 -3.47,2.38 -6.36,2.48l0 11.91c0,2.31 -0.49,4.31 -1.47,6 -0.98,1.68 -2.39,2.97 -4.23,3.86 -1.84,0.88 -4.01,1.33 -6.52,1.33 -3.78,0 -6.77,-0.98 -8.95,-2.95 -2.18,-1.97 -3.3,-4.66 -3.33,-8.08l0 -20.52 7.54 0 0 20.66c0.08,3.4 1.66,5.1 4.74,5.1 1.55,0 2.73,-0.43 3.53,-1.28 0.79,-0.85 1.2,-2.25 1.2,-4.16l0 -20.32 7.49 0z"/>
  <path id="3" class="fil5" d="M364.67 88.2c0,3.05 -0.57,5.75 -1.7,8.08 -1.14,2.34 -2.73,4.13 -4.81,5.39 -2.07,1.25 -4.43,1.88 -7.08,1.88 -2.65,0 -4.99,-0.61 -7.05,-1.84 -2.05,-1.22 -3.65,-2.98 -4.79,-5.26 -1.14,-2.28 -1.74,-4.91 -1.79,-7.87l0 -1.65c0,-3.06 0.56,-5.76 1.68,-8.08 1.12,-2.33 2.71,-4.12 4.78,-5.39 2.08,-1.27 4.45,-1.9 7.12,-1.9 2.04,0 3.91,0.37 5.6,1.12 1.69,0.74 3.16,1.82 4.38,3.22 0.77,-0.27 1.33,-0.86 1.69,-1.76 0.36,-0.9 0.55,-2.33 0.55,-4.26l4.36 0c0,4.98 -1.52,8.03 -4.57,9.17 1.06,2.27 1.61,4.87 1.63,7.8l0 1.35zm-7.63 -1.28c0,-3.11 -0.52,-5.47 -1.56,-7.08 -1.04,-1.61 -2.52,-2.41 -4.45,-2.41 -3.74,0 -5.72,2.84 -5.93,8.51l-0.02 2.3c0,3.08 0.5,5.44 1.5,7.08 1.01,1.64 2.51,2.46 4.5,2.46 1.91,0 3.38,-0.81 4.4,-2.43 1.02,-1.62 1.55,-3.94 1.56,-6.98l0 -1.44zm-2.54 -16.73l-5.85 0.02 -6.02 -6.69 7.6 0 4.27 6.67z"/>
  <polygon id="4" class="fil5" points="395.29,103.11 387.84,103.11 376.81,83.75 376.81,103.11 369.32,103.11 369.32,72 376.81,72 387.82,91.36 387.82,72 395.29,72 "/>
  <path id="5" class="fil5" d="M425.51 99.26c-1.16,1.28 -2.84,2.32 -5.07,3.11 -2.22,0.78 -4.66,1.17 -7.31,1.17 -4.07,0 -7.33,-1.25 -9.76,-3.74 -2.43,-2.49 -3.73,-5.96 -3.91,-10.4l-0.02 -2.69c0,-3.06 0.55,-5.73 1.63,-8.02 1.08,-2.28 2.63,-4.05 4.64,-5.28 2.01,-1.23 4.35,-1.84 7,-1.84 3.87,0 6.87,0.89 9.02,2.66 2.14,1.77 3.4,4.42 3.75,7.93l-7.23 0c-0.25,-1.74 -0.81,-2.97 -1.66,-3.71 -0.85,-0.74 -2.06,-1.11 -3.63,-1.11 -1.88,0 -3.33,0.8 -4.36,2.39 -1.02,1.6 -1.55,3.87 -1.56,6.83l0 1.87c0,3.11 0.53,5.44 1.6,6.99 1.06,1.56 2.73,2.34 5.01,2.34 1.95,0 3.4,-0.44 4.35,-1.3l0 -4.82 -5.21 0 0 -5.16 12.72 0 0 12.78z"/>
  <polygon id="6" class="fil5" points="463.88,77.78 454.55,77.78 454.55,103.11 447.05,103.11 447.05,77.78 437.88,77.78 437.88,72 463.88,72 "/>
  <polygon id="7" class="fil5" points="493.04,103.11 485.58,103.11 485.58,90.11 474.54,90.11 474.54,103.11 467.04,103.11 467.04,72 474.54,72 474.54,84.34 485.58,84.34 485.58,72 493.04,72 "/>
  <path id="8" class="fil5" d="M505.28 92.52l0 10.59 -7.49 0 0 -31.1 12.41 0c2.38,0 4.48,0.44 6.31,1.31 1.83,0.87 3.24,2.11 4.25,3.73 1,1.61 1.5,3.44 1.5,5.49 0,3.03 -1.09,5.45 -3.26,7.26 -2.17,1.82 -5.15,2.72 -8.94,2.72l-4.78 0zm0 -5.77l4.91 0c1.45,0 2.56,-0.36 3.32,-1.09 0.77,-0.73 1.14,-1.75 1.14,-3.08 0,-1.45 -0.39,-2.61 -1.17,-3.48 -0.78,-0.87 -1.85,-1.31 -3.2,-1.33l-5 0 0 8.97z"/>
  <polygon id="9" class="fil5" points="550.66,77.78 541.33,77.78 541.33,103.11 533.83,103.11 533.83,77.78 524.66,77.78 524.66,72 550.66,72 "/>
  <polygon id="10" class="fil5" points="574.01,91.53 570.94,94.9 570.94,103.11 563.44,103.11 563.44,72 570.94,72 570.94,85.72 573.54,81.77 580.25,72 589.51,72 579.01,85.76 589.51,103.11 580.63,103.11 "/>
  <polygon id="11" class="fil5" points="617.41,103.11 609.95,103.11 609.95,90.11 598.91,90.11 598.91,103.11 591.41,103.11 591.41,72 598.91,72 598.91,84.34 609.95,84.34 609.95,72 617.41,72 "/>
  <path id="12" class="fil5" d="M648.48 88.2c0,3.03 -0.56,5.72 -1.68,8.06 -1.12,2.34 -2.73,4.14 -4.8,5.4 -2.07,1.26 -4.43,1.89 -7.08,1.89 -2.65,0 -5,-0.61 -7.05,-1.83 -2.05,-1.22 -3.65,-2.96 -4.8,-5.23 -1.14,-2.26 -1.74,-4.86 -1.8,-7.8l0 -1.75c0,-3.05 0.55,-5.74 1.68,-8.07 1.12,-2.33 2.72,-4.13 4.8,-5.39 2.09,-1.27 4.46,-1.9 7.12,-1.9 2.63,0 4.99,0.63 7.05,1.88 2.06,1.25 3.67,3.04 4.82,5.35 1.14,2.32 1.72,4.97 1.74,7.97l0 1.43zm-7.63 -1.28c0,-3.11 -0.51,-5.47 -1.55,-7.08 -1.04,-1.61 -2.51,-2.41 -4.43,-2.41 -3.76,0 -5.75,2.84 -5.96,8.51l-0.02 2.3c0,3.06 0.5,5.42 1.52,7.06 1.01,1.65 2.51,2.47 4.51,2.47 1.9,0 3.35,-0.81 4.37,-2.43 1.03,-1.62 1.55,-3.94 1.56,-6.98l0 -1.44z"/>
  <path id="13" class="fil5" d="M669.57 97.29l-10.27 0 -1.79 5.82 -8.01 0 11.41 -31.1 7.04 0 11.5 31.1 -8.06 0 -1.82 -5.82zm-8.48 -5.77l6.69 0 -3.35 -10.8 -3.33 10.8z"/>
  <polygon id="14" class="fil5" points="718.59,103.11 711.13,103.11 711.13,90.11 700.09,90.11 700.09,103.11 692.59,103.11 692.59,72 700.09,72 700.09,84.34 711.13,84.34 711.13,72 718.59,72 "/>
  <path id="15" class="fil5" d="M749.66 88.2c0,3.03 -0.56,5.72 -1.68,8.06 -1.12,2.34 -2.73,4.14 -4.8,5.4 -2.07,1.26 -4.43,1.89 -7.08,1.89 -2.65,0 -5,-0.61 -7.05,-1.83 -2.05,-1.22 -3.65,-2.96 -4.8,-5.23 -1.14,-2.26 -1.74,-4.86 -1.8,-7.8l0 -1.75c0,-3.05 0.55,-5.74 1.68,-8.07 1.12,-2.33 2.72,-4.13 4.8,-5.39 2.09,-1.27 4.46,-1.9 7.12,-1.9 2.63,0 4.99,0.63 7.05,1.88 2.06,1.25 3.67,3.04 4.82,5.35 1.14,2.32 1.72,4.97 1.74,7.97l0 1.43zm-7.63 -1.28c0,-3.11 -0.51,-5.47 -1.55,-7.08 -1.04,-1.61 -2.51,-2.41 -4.43,-2.41 -3.76,0 -5.75,2.84 -5.96,8.51l-0.02 2.3c0,3.06 0.5,5.42 1.52,7.06 1.01,1.65 2.51,2.47 4.51,2.47 1.9,0 3.35,-0.81 4.37,-2.43 1.03,-1.62 1.55,-3.94 1.56,-6.98l0 -1.44zm-9.8 21.13c0,-0.93 0.38,-1.69 1.14,-2.3 0.76,-0.6 1.71,-0.9 2.85,-0.9 1.14,0 2.09,0.3 2.85,0.9 0.77,0.61 1.15,1.37 1.15,2.3 0,0.93 -0.38,1.69 -1.15,2.3 -0.76,0.6 -1.71,0.9 -2.85,0.9 -1.14,0 -2.09,-0.3 -2.85,-0.9 -0.77,-0.61 -1.14,-1.37 -1.14,-2.3z"/>
  <path id="16" class="fil5" d="M778.7 92.58c-0.1,2.17 -0.69,4.08 -1.76,5.74 -1.06,1.65 -2.57,2.94 -4.49,3.85 -1.93,0.91 -4.13,1.37 -6.61,1.37 -4.09,0 -7.31,-1.33 -9.65,-4 -2.35,-2.66 -3.53,-6.42 -3.53,-11.28l0 -1.54c0,-3.05 0.53,-5.72 1.6,-8 1.06,-2.29 2.59,-4.05 4.58,-5.3 1.99,-1.25 4.3,-1.87 6.92,-1.87 3.78,0 6.81,0.99 9.1,2.98 2.3,1.98 3.59,4.72 3.91,8.21l-7.47 0c-0.06,-1.9 -0.53,-3.26 -1.43,-4.09 -0.9,-0.82 -2.27,-1.24 -4.1,-1.24 -1.87,0 -3.23,0.7 -4.1,2.09 -0.87,1.4 -1.33,3.63 -1.37,6.7l0 2.2c0,3.32 0.42,5.69 1.25,7.12 0.83,1.42 2.27,2.14 4.3,2.14 1.72,0 3.04,-0.41 3.95,-1.22 0.91,-0.82 1.39,-2.11 1.45,-3.88l7.46 0z"/>
  <path id="17" class="fil5" d="M818.61 99.26c-1.16,1.28 -2.84,2.32 -5.07,3.11 -2.22,0.78 -4.66,1.17 -7.31,1.17 -4.07,0 -7.33,-1.25 -9.76,-3.74 -2.43,-2.49 -3.73,-5.96 -3.91,-10.4l-0.02 -2.69c0,-3.06 0.55,-5.73 1.63,-8.02 1.08,-2.28 2.63,-4.05 4.64,-5.28 2.01,-1.23 4.35,-1.84 7,-1.84 3.87,0 6.87,0.89 9.02,2.66 2.14,1.77 3.4,4.42 3.75,7.93l-7.23 0c-0.25,-1.74 -0.81,-2.97 -1.66,-3.71 -0.85,-0.74 -2.06,-1.11 -3.63,-1.11 -1.88,0 -3.33,0.8 -4.36,2.39 -1.02,1.6 -1.55,3.87 -1.56,6.83l0 1.87c0,3.11 0.53,5.44 1.6,6.99 1.06,1.56 2.73,2.34 5.01,2.34 1.95,0 3.4,-0.44 4.35,-1.3l0 -4.82 -5.21 0 0 -5.16 12.72 0 0 12.78z"/>
  <polygon id="18" class="fil5" points="830.95,103.11 823.48,103.11 823.48,72 830.95,72 "/>
  <path id="19" class="fil5" d="M854.21 97.29l-10.27 0 -1.79 5.82 -8.01 0 11.41 -31.1 7.04 0 11.5 31.1 -8.06 0 -1.82 -5.82zm-8.48 -5.77l6.69 0 -3.35 -10.8 -3.33 10.8zm4.31 -27.82l7.6 0 -5.94 6.69 -5.87 -0.02 4.21 -6.67z"/>
  <path id="20" class="fil5" d="M892.21 88.2c0,3.03 -0.56,5.72 -1.68,8.06 -1.12,2.34 -2.73,4.14 -4.8,5.4 -2.07,1.26 -4.43,1.89 -7.08,1.89 -2.65,0 -5,-0.61 -7.05,-1.83 -2.05,-1.22 -3.65,-2.96 -4.8,-5.23 -1.14,-2.26 -1.74,-4.86 -1.8,-7.8l0 -1.75c0,-3.05 0.55,-5.74 1.68,-8.07 1.12,-2.33 2.72,-4.13 4.8,-5.39 2.09,-1.27 4.46,-1.9 7.12,-1.9 2.63,0 4.99,0.63 7.05,1.88 2.06,1.25 3.67,3.04 4.82,5.35 1.14,2.32 1.72,4.97 1.74,7.97l0 1.43zm-7.63 -1.28c0,-3.11 -0.51,-5.47 -1.55,-7.08 -1.04,-1.61 -2.51,-2.41 -4.43,-2.41 -3.76,0 -5.75,2.84 -5.96,8.51l-0.02 2.3c0,3.06 0.5,5.42 1.52,7.06 1.01,1.65 2.51,2.47 4.51,2.47 1.9,0 3.35,-0.81 4.37,-2.43 1.03,-1.62 1.55,-3.94 1.56,-6.98l0 -1.44z"/>
  <path id="21" class="fil5" d="M906.99 103.11l0 -31.1 10.02 0c2.75,0 5.22,0.62 7.41,1.87 2.19,1.25 3.91,3 5.13,5.28 1.23,2.27 1.86,4.82 1.87,7.64l0 1.43c0,2.84 -0.61,5.4 -1.81,7.66 -1.2,2.26 -2.89,4.02 -5.08,5.3 -2.19,1.28 -4.62,1.92 -7.31,1.93l-10.24 0zm7.5 -25.33l0 19.55 2.6 0c2.15,0 3.81,-0.77 4.96,-2.3 1.15,-1.53 1.73,-3.81 1.73,-6.83l0 -1.34c0,-3.01 -0.58,-5.27 -1.73,-6.79 -1.15,-1.52 -2.84,-2.29 -5.04,-2.29l-2.52 0z"/>
  <path id="22" class="fil5" d="M959.67 72l0 20.36c0,2.31 -0.49,4.31 -1.47,5.99 -0.98,1.69 -2.39,2.97 -4.23,3.86 -1.84,0.88 -4.01,1.33 -6.51,1.33 -3.79,0 -6.77,-0.98 -8.95,-2.95 -2.18,-1.97 -3.29,-4.66 -3.33,-8.08l0 -20.52 7.54 0 0 20.66c0.09,3.4 1.67,5.1 4.75,5.1 1.55,0 2.73,-0.43 3.52,-1.28 0.79,-0.85 1.2,-2.25 1.2,-4.16l0 -20.32 7.49 0zm-16.33 36.05c0,-0.93 0.38,-1.69 1.15,-2.3 0.76,-0.6 1.71,-0.9 2.85,-0.9 1.14,0 2.09,0.3 2.85,0.9 0.77,0.61 1.14,1.37 1.14,2.3 0,0.93 -0.38,1.69 -1.14,2.3 -0.76,0.6 -1.71,0.9 -2.85,0.9 -1.14,0 -2.09,-0.3 -2.85,-0.9 -0.77,-0.61 -1.15,-1.37 -1.15,-2.3z"/>
  <path id="23" class="fil5" d="M989.5 92.58c-0.1,2.17 -0.69,4.08 -1.76,5.74 -1.06,1.65 -2.57,2.94 -4.49,3.85 -1.93,0.91 -4.13,1.37 -6.61,1.37 -4.09,0 -7.31,-1.33 -9.65,-4 -2.35,-2.66 -3.53,-6.42 -3.53,-11.28l0 -1.54c0,-3.05 0.53,-5.72 1.6,-8 1.06,-2.29 2.59,-4.05 4.58,-5.3 1.99,-1.25 4.3,-1.87 6.92,-1.87 3.78,0 6.81,0.99 9.1,2.98 2.3,1.98 3.59,4.72 3.91,8.21l-7.47 0c-0.06,-1.9 -0.53,-3.26 -1.43,-4.09 -0.9,-0.82 -2.27,-1.24 -4.1,-1.24 -1.87,0 -3.23,0.7 -4.1,2.09 -0.87,1.4 -1.33,3.63 -1.37,6.7l0 2.2c0,3.32 0.42,5.69 1.25,7.12 0.83,1.42 2.27,2.14 4.3,2.14 1.72,0 3.04,-0.41 3.95,-1.22 0.91,-0.82 1.39,-2.11 1.45,-3.88l7.46 0z"/>
  <polygon class="fil5" points="271.22,156.47 266.44,156.47 266.44,144.24 254.11,144.24 254.11,156.47 249.31,156.47 249.31,128.87 254.11,128.87 254.11,140.36 266.44,140.36 266.44,128.87 271.22,128.87 "/>
  <polygon id="1" class="fil5" points="282.97,156.47 278.19,156.47 278.19,128.87 282.97,128.87 "/>
  <path id="2" class="fil5" d="M311.04 152.89c-1,1.3 -2.38,2.29 -4.15,2.96 -1.77,0.67 -3.78,1 -6.03,1 -2.31,0 -4.36,-0.52 -6.14,-1.57 -1.79,-1.05 -3.16,-2.56 -4.12,-4.51 -0.97,-1.95 -1.48,-4.23 -1.51,-6.84l0 -2.16c0,-4.17 1,-7.43 3,-9.78 1.99,-2.35 4.78,-3.52 8.35,-3.52 3.07,0 5.51,0.76 7.32,2.29 1.81,1.53 2.9,3.72 3.26,6.57l-4.7 0c-0.53,-3.32 -2.46,-4.98 -5.78,-4.98 -2.15,0 -3.78,0.77 -4.9,2.32 -1.12,1.54 -1.7,3.8 -1.73,6.79l0 2.12c0,2.97 0.63,5.28 1.88,6.92 1.26,1.64 3.01,2.47 5.24,2.47 2.45,0 4.2,-0.55 5.23,-1.66l0 -5.37 -5.69 0 0 -3.65 10.46 0 0 10.59z"/>
  <polygon id="3" class="fil5" points="339.23,156.47 334.46,156.47 334.46,144.24 322.12,144.24 322.12,156.47 317.32,156.47 317.32,128.87 322.12,128.87 322.12,140.36 334.46,140.36 334.46,128.87 339.23,128.87 "/>
  <path id="4" class="fil5" d="M370.02 149.36c0,-1.21 -0.43,-2.15 -1.28,-2.8 -0.85,-0.66 -2.39,-1.32 -4.61,-1.99 -2.23,-0.67 -4,-1.42 -5.31,-2.24 -2.51,-1.58 -3.77,-3.64 -3.77,-6.18 0,-2.23 0.91,-4.06 2.72,-5.5 1.81,-1.44 4.17,-2.16 7.06,-2.16 1.92,0 3.63,0.36 5.14,1.06 1.5,0.71 2.68,1.71 3.55,3.03 0.85,1.31 1.29,2.76 1.29,4.35l-4.77 0c0,-1.43 -0.45,-2.54 -1.36,-3.35 -0.9,-0.81 -2.19,-1.21 -3.88,-1.21 -1.57,0 -2.78,0.33 -3.65,1 -0.87,0.67 -1.3,1.6 -1.3,2.79 0,1 0.47,1.84 1.4,2.52 0.94,0.67 2.48,1.33 4.63,1.96 2.15,0.63 3.87,1.36 5.18,2.17 1.3,0.81 2.25,1.75 2.86,2.81 0.61,1.06 0.91,2.3 0.91,3.71 0,2.3 -0.88,4.13 -2.65,5.5 -1.76,1.36 -4.15,2.04 -7.17,2.04 -1.99,0 -3.83,-0.37 -5.51,-1.11 -1.68,-0.74 -2.98,-1.76 -3.9,-3.06 -0.93,-1.3 -1.4,-2.82 -1.4,-4.55l4.8 0c0,1.57 0.52,2.78 1.55,3.64 1.04,0.86 2.52,1.29 4.45,1.29 1.67,0 2.92,-0.34 3.77,-1.02 0.84,-0.67 1.26,-1.57 1.26,-2.68z"/>
  <path id="5" class="fil5" d="M401.09 147.48c-0.28,2.94 -1.36,5.25 -3.26,6.9 -1.9,1.65 -4.41,2.48 -7.56,2.48 -2.2,0 -4.13,-0.52 -5.81,-1.57 -1.68,-1.04 -2.96,-2.52 -3.87,-4.44 -0.91,-1.92 -1.38,-4.15 -1.42,-6.7l0 -2.58c0,-2.61 0.47,-4.9 1.38,-6.88 0.93,-1.99 2.24,-3.52 3.97,-4.59 1.73,-1.07 3.72,-1.61 5.98,-1.61 3.05,0 5.5,0.83 7.36,2.48 1.86,1.66 2.94,3.99 3.24,7.01l-4.77 0c-0.23,-1.98 -0.81,-3.42 -1.73,-4.29 -0.93,-0.88 -2.29,-1.32 -4.09,-1.32 -2.08,0 -3.68,0.76 -4.8,2.28 -1.12,1.53 -1.7,3.76 -1.71,6.7l0 2.45c0,2.99 0.53,5.26 1.6,6.83 1.07,1.57 2.63,2.35 4.69,2.35 1.88,0 3.3,-0.42 4.24,-1.27 0.95,-0.85 1.55,-2.26 1.8,-4.23l4.77 0z"/>
  <polygon id="6" class="fil5" points="428.3,156.47 423.53,156.47 423.53,144.24 411.19,144.24 411.19,156.47 406.4,156.47 406.4,128.87 411.19,128.87 411.19,140.36 423.53,140.36 423.53,128.87 428.3,128.87 "/>
  <path id="7" class="fil5" d="M457.01 143.39c0,2.71 -0.47,5.09 -1.4,7.12 -0.94,2.04 -2.27,3.61 -4.01,4.7 -1.73,1.09 -3.73,1.64 -6,1.64 -2.24,0 -4.23,-0.55 -5.98,-1.64 -1.75,-1.09 -3.11,-2.65 -4.06,-4.67 -0.96,-2.02 -1.44,-4.36 -1.45,-7l0 -1.56c0,-2.69 0.47,-5.07 1.43,-7.13 0.95,-2.06 2.3,-3.64 4.04,-4.73 1.73,-1.09 3.73,-1.64 5.98,-1.64 2.25,0 4.24,0.54 5.98,1.62 1.74,1.08 3.08,2.63 4.03,4.66 0.94,2.03 1.43,4.39 1.44,7.08l0 1.53zm-4.8 -1.4c0,-3.07 -0.58,-5.41 -1.73,-7.05 -1.15,-1.64 -2.79,-2.45 -4.92,-2.45 -2.07,0 -3.69,0.82 -4.86,2.45 -1.17,1.62 -1.77,3.93 -1.79,6.91l0 1.6c0,3.04 0.59,5.39 1.77,7.05 1.18,1.66 2.82,2.49 4.92,2.49 2.12,0 3.75,-0.81 4.9,-2.43 1.15,-1.62 1.71,-3.99 1.71,-7.11l0 -1.45z"/>
  <path id="8" class="fil5" d="M484.83 143.39c0,2.71 -0.47,5.09 -1.4,7.12 -0.94,2.04 -2.27,3.61 -4.01,4.7 -1.73,1.09 -3.73,1.64 -6,1.64 -2.24,0 -4.23,-0.55 -5.98,-1.64 -1.75,-1.09 -3.11,-2.65 -4.06,-4.67 -0.96,-2.02 -1.44,-4.36 -1.45,-7l0 -1.56c0,-2.69 0.47,-5.07 1.43,-7.13 0.95,-2.06 2.3,-3.64 4.04,-4.73 1.73,-1.09 3.73,-1.64 5.98,-1.64 2.25,0 4.24,0.54 5.98,1.62 1.74,1.08 3.08,2.63 4.03,4.66 0.94,2.03 1.43,4.39 1.44,7.08l0 1.53zm-4.8 -1.4c0,-3.07 -0.58,-5.41 -1.73,-7.05 -1.15,-1.64 -2.79,-2.45 -4.92,-2.45 -2.07,0 -3.69,0.82 -4.86,2.45 -1.17,1.62 -1.77,3.93 -1.79,6.91l0 1.6c0,3.04 0.59,5.39 1.77,7.05 1.18,1.66 2.82,2.49 4.92,2.49 2.12,0 3.75,-0.81 4.9,-2.43 1.15,-1.62 1.71,-3.99 1.71,-7.11l0 -1.45z"/>
  <polygon id="9" class="fil5" points="495.43,152.59 507.96,152.59 507.96,156.47 490.64,156.47 490.64,128.87 495.43,128.87 "/>
  <path id="10" class="fil5" d="M544.34 143.39c0,2.71 -0.47,5.09 -1.4,7.12 -0.94,2.04 -2.27,3.61 -4.01,4.7 -1.73,1.09 -3.73,1.64 -6,1.64 -2.24,0 -4.23,-0.55 -5.98,-1.64 -1.75,-1.09 -3.11,-2.65 -4.06,-4.67 -0.96,-2.02 -1.44,-4.36 -1.45,-7l0 -1.56c0,-2.69 0.47,-5.07 1.43,-7.13 0.95,-2.06 2.3,-3.64 4.04,-4.73 1.73,-1.09 3.73,-1.64 5.98,-1.64 2.25,0 4.24,0.54 5.98,1.62 1.74,1.08 3.08,2.63 4.03,4.66 0.94,2.03 1.43,4.39 1.44,7.08l0 1.53zm-4.8 -1.4c0,-3.07 -0.58,-5.41 -1.73,-7.05 -1.15,-1.64 -2.79,-2.45 -4.92,-2.45 -2.07,0 -3.69,0.82 -4.86,2.45 -1.17,1.62 -1.77,3.93 -1.79,6.91l0 1.6c0,3.04 0.59,5.39 1.77,7.05 1.18,1.66 2.82,2.49 4.92,2.49 2.12,0 3.75,-0.81 4.9,-2.43 1.15,-1.62 1.71,-3.99 1.71,-7.11l0 -1.45z"/>
  <polygon id="11" class="fil5" points="566.05,144.83 554.94,144.83 554.94,156.47 550.15,156.47 550.15,128.87 567.68,128.87 567.68,132.75 554.94,132.75 554.94,140.95 566.05,140.95 "/>
  <polygon id="12" class="fil5" points="598.29,144.17 586.95,144.17 586.95,152.59 600.2,152.59 600.2,156.47 582.16,156.47 582.16,128.87 600.06,128.87 600.06,132.75 586.95,132.75 586.95,140.36 598.29,140.36 "/>
  <path id="13" class="fil5" d="M605.12 156.47l0 -27.6 8.15 0c2.44,0 4.6,0.54 6.49,1.63 1.89,1.09 3.35,2.63 4.39,4.63 1.03,1.99 1.55,4.28 1.55,6.86l0 1.38c0,2.62 -0.52,4.92 -1.56,6.9 -1.04,1.99 -2.53,3.51 -4.46,4.59 -1.93,1.07 -4.13,1.61 -6.62,1.61l-7.94 0zm4.79 -23.72l0 19.84 3.12 0c2.52,0 4.44,-0.78 5.79,-2.35 1.35,-1.57 2.03,-3.82 2.06,-6.75l0 -1.53c0,-2.98 -0.65,-5.27 -1.95,-6.84 -1.31,-1.57 -3.2,-2.36 -5.67,-2.36l-3.36 0z"/>
  <path id="14" class="fil5" d="M651.69 128.87l0 18.45c0,2.93 -0.94,5.25 -2.81,6.97 -1.88,1.71 -4.37,2.57 -7.5,2.57 -3.16,0 -5.67,-0.84 -7.52,-2.53 -1.86,-1.69 -2.78,-4.03 -2.78,-7.03l0 -18.43 4.77 0 0 18.43c0,1.84 0.47,3.25 1.4,4.22 0.93,0.97 2.31,1.46 4.13,1.46 3.69,0 5.54,-1.94 5.54,-5.83l0 -18.28 4.77 0z"/>
  <path id="15" class="fil5" d="M678.89 147.48c-0.28,2.94 -1.36,5.25 -3.26,6.9 -1.9,1.65 -4.41,2.48 -7.56,2.48 -2.2,0 -4.13,-0.52 -5.81,-1.57 -1.68,-1.04 -2.96,-2.52 -3.87,-4.44 -0.91,-1.92 -1.38,-4.15 -1.42,-6.7l0 -2.58c0,-2.61 0.47,-4.9 1.38,-6.88 0.93,-1.99 2.24,-3.52 3.97,-4.59 1.73,-1.07 3.72,-1.61 5.98,-1.61 3.05,0 5.5,0.83 7.36,2.48 1.86,1.66 2.94,3.99 3.24,7.01l-4.77 0c-0.23,-1.98 -0.81,-3.42 -1.73,-4.29 -0.93,-0.88 -2.29,-1.32 -4.09,-1.32 -2.08,0 -3.68,0.76 -4.8,2.28 -1.12,1.53 -1.7,3.76 -1.71,6.7l0 2.45c0,2.99 0.53,5.26 1.6,6.83 1.07,1.57 2.63,2.35 4.69,2.35 1.88,0 3.3,-0.42 4.24,-1.27 0.95,-0.85 1.55,-2.26 1.8,-4.23l4.77 0z"/>
  <path id="16" class="fil5" d="M699.63 150.07l-10.69 0 -2.24 6.4 -4.98 0 10.42 -27.6 4.3 0 10.44 27.6 -5 0 -2.26 -6.4zm-9.34 -3.88l8 0 -4 -11.46 -4 11.46z"/>
  <polygon id="17" class="fil5" points="728.71,132.75 720.11,132.75 720.11,156.47 715.35,156.47 715.35,132.75 706.82,132.75 706.82,128.87 728.71,128.87 "/>
  <polygon id="18" class="fil5" points="738.41,156.47 733.64,156.47 733.64,128.87 738.41,128.87 "/>
  <path id="19" class="fil5" d="M767.34 143.39c0,2.71 -0.47,5.09 -1.4,7.12 -0.94,2.04 -2.27,3.61 -4.01,4.7 -1.73,1.09 -3.73,1.64 -6,1.64 -2.24,0 -4.23,-0.55 -5.98,-1.64 -1.75,-1.09 -3.11,-2.65 -4.06,-4.67 -0.96,-2.02 -1.44,-4.36 -1.45,-7l0 -1.56c0,-2.69 0.47,-5.07 1.43,-7.13 0.95,-2.06 2.3,-3.64 4.04,-4.73 1.73,-1.09 3.73,-1.64 5.98,-1.64 2.25,0 4.24,0.54 5.98,1.62 1.74,1.08 3.08,2.63 4.03,4.66 0.94,2.03 1.43,4.39 1.44,7.08l0 1.53zm-4.8 -1.4c0,-3.07 -0.58,-5.41 -1.73,-7.05 -1.15,-1.64 -2.79,-2.45 -4.92,-2.45 -2.07,0 -3.69,0.82 -4.86,2.45 -1.17,1.62 -1.77,3.93 -1.79,6.91l0 1.6c0,3.04 0.59,5.39 1.77,7.05 1.18,1.66 2.82,2.49 4.92,2.49 2.12,0 3.75,-0.81 4.9,-2.43 1.15,-1.62 1.71,-3.99 1.71,-7.11l0 -1.45z"/>
  <polygon id="20" class="fil5" points="795.04,156.47 790.24,156.47 777.94,136.89 777.94,156.47 773.15,156.47 773.15,128.87 777.94,128.87 790.28,148.53 790.28,128.87 795.04,128.87 "/>
  <path id="21" class="fil5" d="M825.83 149.36c0,-1.21 -0.43,-2.15 -1.28,-2.8 -0.85,-0.66 -2.39,-1.32 -4.61,-1.99 -2.23,-0.67 -4,-1.42 -5.31,-2.24 -2.51,-1.58 -3.77,-3.64 -3.77,-6.18 0,-2.23 0.91,-4.06 2.72,-5.5 1.81,-1.44 4.17,-2.16 7.06,-2.16 1.92,0 3.63,0.36 5.14,1.06 1.5,0.71 2.68,1.71 3.55,3.03 0.85,1.31 1.29,2.76 1.29,4.35l-4.77 0c0,-1.43 -0.45,-2.54 -1.36,-3.35 -0.9,-0.81 -2.19,-1.21 -3.88,-1.21 -1.57,0 -2.78,0.33 -3.65,1 -0.87,0.67 -1.3,1.6 -1.3,2.79 0,1 0.47,1.84 1.4,2.52 0.94,0.67 2.48,1.33 4.63,1.96 2.15,0.63 3.87,1.36 5.18,2.17 1.3,0.81 2.25,1.75 2.86,2.81 0.61,1.06 0.91,2.3 0.91,3.71 0,2.3 -0.88,4.13 -2.65,5.5 -1.76,1.36 -4.15,2.04 -7.17,2.04 -1.99,0 -3.83,-0.37 -5.51,-1.11 -1.68,-0.74 -2.98,-1.76 -3.9,-3.06 -0.93,-1.3 -1.4,-2.82 -1.4,-4.55l4.8 0c0,1.57 0.52,2.78 1.55,3.64 1.04,0.86 2.52,1.29 4.45,1.29 1.67,0 2.92,-0.34 3.77,-1.02 0.84,-0.67 1.26,-1.57 1.26,-2.68z"/>
  <path id="22" class="fil5" d="M856.9 147.48c-0.28,2.94 -1.36,5.25 -3.26,6.9 -1.9,1.65 -4.41,2.48 -7.56,2.48 -2.2,0 -4.13,-0.52 -5.81,-1.57 -1.68,-1.04 -2.96,-2.52 -3.87,-4.44 -0.91,-1.92 -1.38,-4.15 -1.42,-6.7l0 -2.58c0,-2.61 0.47,-4.9 1.38,-6.88 0.93,-1.99 2.24,-3.52 3.97,-4.59 1.73,-1.07 3.72,-1.61 5.98,-1.61 3.05,0 5.5,0.83 7.36,2.48 1.86,1.66 2.94,3.99 3.24,7.01l-4.77 0c-0.23,-1.98 -0.81,-3.42 -1.73,-4.29 -0.93,-0.88 -2.29,-1.32 -4.09,-1.32 -2.08,0 -3.68,0.76 -4.8,2.28 -1.12,1.53 -1.7,3.76 -1.71,6.7l0 2.45c0,2.99 0.53,5.26 1.6,6.83 1.07,1.57 2.63,2.35 4.69,2.35 1.88,0 3.3,-0.42 4.24,-1.27 0.95,-0.85 1.55,-2.26 1.8,-4.23l4.77 0z"/>
  <polygon id="23" class="fil5" points="867.26,156.47 862.49,156.47 862.49,128.87 867.26,128.87 "/>
  <polygon id="24" class="fil5" points="890.3,144.17 878.97,144.17 878.97,152.59 892.22,152.59 892.22,156.47 874.17,156.47 874.17,128.87 892.08,128.87 892.08,132.75 878.97,132.75 878.97,140.36 890.3,140.36 "/>
  <polygon id="25" class="fil5" points="919.04,156.47 914.24,156.47 901.94,136.89 901.94,156.47 897.15,156.47 897.15,128.87 901.94,128.87 914.28,148.53 914.28,128.87 919.04,128.87 "/>
  <path id="26" class="fil5" d="M946.78 147.48c-0.28,2.94 -1.36,5.25 -3.26,6.9 -1.9,1.65 -4.41,2.48 -7.56,2.48 -2.2,0 -4.13,-0.52 -5.81,-1.57 -1.68,-1.04 -2.96,-2.52 -3.87,-4.44 -0.91,-1.92 -1.38,-4.15 -1.42,-6.7l0 -2.58c0,-2.61 0.47,-4.9 1.38,-6.88 0.93,-1.99 2.24,-3.52 3.97,-4.59 1.73,-1.07 3.72,-1.61 5.98,-1.61 3.05,0 5.5,0.83 7.36,2.48 1.86,1.66 2.94,3.99 3.24,7.01l-4.77 0c-0.23,-1.98 -0.81,-3.42 -1.73,-4.29 -0.93,-0.88 -2.29,-1.32 -4.09,-1.32 -2.08,0 -3.68,0.76 -4.8,2.28 -1.12,1.53 -1.7,3.76 -1.71,6.7l0 2.45c0,2.99 0.53,5.26 1.6,6.83 1.07,1.57 2.63,2.35 4.69,2.35 1.88,0 3.3,-0.42 4.24,-1.27 0.95,-0.85 1.55,-2.26 1.8,-4.23l4.77 0z"/>
  <polygon id="27" class="fil5" points="968.21,144.17 956.88,144.17 956.88,152.59 970.13,152.59 970.13,156.47 952.09,156.47 952.09,128.87 969.99,128.87 969.99,132.75 956.88,132.75 956.88,140.36 968.21,140.36 "/>
  <path id="28" class="fil5" d="M989.49 149.36c0,-1.21 -0.43,-2.15 -1.28,-2.8 -0.85,-0.66 -2.39,-1.32 -4.61,-1.99 -2.23,-0.67 -4,-1.42 -5.31,-2.24 -2.51,-1.58 -3.77,-3.64 -3.77,-6.18 0,-2.23 0.91,-4.06 2.72,-5.5 1.81,-1.44 4.17,-2.16 7.06,-2.16 1.92,0 3.63,0.36 5.14,1.06 1.5,0.71 2.68,1.71 3.55,3.03 0.85,1.31 1.29,2.76 1.29,4.35l-4.77 0c0,-1.43 -0.45,-2.54 -1.36,-3.35 -0.9,-0.81 -2.19,-1.21 -3.88,-1.21 -1.57,0 -2.78,0.33 -3.65,1 -0.87,0.67 -1.3,1.6 -1.3,2.79 0,1 0.47,1.84 1.4,2.52 0.94,0.67 2.48,1.33 4.63,1.96 2.15,0.63 3.87,1.36 5.18,2.17 1.3,0.81 2.25,1.75 2.86,2.81 0.61,1.06 0.91,2.3 0.91,3.71 0,2.3 -0.88,4.13 -2.65,5.5 -1.76,1.36 -4.15,2.04 -7.17,2.04 -1.99,0 -3.83,-0.37 -5.51,-1.11 -1.68,-0.74 -2.98,-1.76 -3.9,-3.06 -0.93,-1.3 -1.4,-2.82 -1.4,-4.55l4.8 0c0,1.57 0.52,2.78 1.55,3.64 1.04,0.86 2.52,1.29 4.45,1.29 1.67,0 2.92,-0.34 3.77,-1.02 0.84,-0.67 1.26,-1.57 1.26,-2.68z"/>
 </g>
</svg>
