<?xml version="1.0" encoding="UTF-8"?>
<!DOCTYPE svg PUBLIC "-//W3C//DTD SVG 1.1//EN" "http://www.w3.org/Graphics/SVG/1.1/DTD/svg11.dtd">
<!-- Creator: CorelDRAW 2018 (64-Bit Evaluation Version) -->
<svg xmlns="http://www.w3.org/2000/svg" xml:space="preserve" width="9.02011in" height="1.79921in" version="1.1" style="shape-rendering:geometricPrecision; text-rendering:geometricPrecision; image-rendering:optimizeQuality; fill-rule:evenodd; clip-rule:evenodd"
viewBox="0 0 985.63 196.6"
 xmlns:xlink="http://www.w3.org/1999/xlink">
 <defs>
  <style type="text/css">
   <![CDATA[
    .str0 {stroke:#373435;stroke-width:0.76;stroke-miterlimit:2.61313}
    .str1 {stroke:#373435;stroke-width:0.33;stroke-miterlimit:2.61313}
    .fil9 {fill:none}
    .fil2 {fill:#FEFEFE}
    .fil6 {fill:#373435}
    .fil0 {fill:#373435}
    .fil3 {fill:#B88F3D}
    .fil7 {fill:#CA1F25}
    .fil1 {fill:#CA1F25}
    .fil8 {fill:#FEFEFE;fill-rule:nonzero}
    .fil5 {fill:#373435;fill-rule:nonzero}
    .fil4 {fill:#B88F3D;fill-rule:nonzero}
   ]]>
  </style>
 </defs>
 <g id="Layer_x0020_1">
  <metadata id="CorelCorpID_0Corel-Layer"/>
  <path class="fil0 str0" d="M35.84 0.38l145.14 0 0 81.71c0,17.53 -8.21,33.48 -19.32,46.59 -14,16.53 -33.2,29.52 -52.41,39.23l-0.83 0.42 -0.83 -0.42c-19.21,-9.71 -38.41,-22.7 -52.41,-39.23 -11.11,-13.11 -19.32,-29.07 -19.32,-46.59l0 -81.71z"/>
  <path class="fil1 str0" d="M37.69 2.23l70.72 0 70.72 0 0 79.86c0,31.04 -26.78,61.97 -70.72,84.17 -43.94,-22.21 -70.72,-53.14 -70.72,-84.17l0 -79.86z"/>
  <path class="fil2 str1" d="M107.92 37.64c0,-21.13 -36.3,-11.65 -36.3,-25.52l0 79.3c0,16.81 36.3,3.4 36.3,32.58 0,-29.18 36.3,-15.77 36.3,-32.58l0 -79.3c0,13.87 -36.3,4.38 -36.3,25.52z"/>
  <path class="fil0" d="M71.62 12.13c-3.14,1.9 -6.28,3.79 -9.42,5.69 0,26.89 0,46.32 0,73.21 0,26.56 34.73,8.77 45.72,32.98 0,-29.18 -36.3,-15.77 -36.3,-32.58l0 -79.3z"/>
  <path class="fil3" d="M69.78 15.4c-1.91,1.15 -3.82,2.31 -5.73,3.46 0,24.06 0,48.11 0,72.17 0,4.02 0.8,8.04 3.97,10.78 2.55,2.2 6.19,3.26 9.41,3.99 4.22,0.96 8.51,1.54 12.71,2.6 5.92,1.5 10.9,3.8 14.71,7.75 -1,-2.74 -2.7,-5.14 -5.39,-7.05 -2.47,-1.75 -5.4,-2.86 -8.29,-3.71 -3.57,-1.05 -7.23,-1.73 -10.79,-2.79 -3.15,-0.94 -6.56,-2.29 -8.64,-4.97 -1.4,-1.81 -1.98,-3.93 -1.98,-6.2l0 -76.02z"/>
  <path class="fil4" d="M83.57 138.23l1.87 -9.61 2.51 0 -3.21 13.26 -2.34 0 -3.19 -13.26 2.49 0 1.86 9.61zm12.9 3.64l-2.24 0 -3.29 -8.7 0 8.7 -2.24 0 0 -13.26 2.24 0 3.29 8.7 0 -8.7 2.24 0 0 13.26zm8.74 -13.26l0 9.18c-0.01,1.38 -0.33,2.43 -0.95,3.17 -0.63,0.73 -1.53,1.1 -2.7,1.1 -1.19,0 -2.1,-0.37 -2.73,-1.11 -0.63,-0.74 -0.94,-1.81 -0.94,-3.21l0 -9.12 2.26 0 0 9.13c0,0.75 0.1,1.29 0.31,1.61 0.2,0.32 0.57,0.48 1.11,0.48 0.53,0 0.9,-0.16 1.1,-0.48 0.2,-0.32 0.3,-0.84 0.31,-1.57l0 -9.17 2.24 0z"/>
  <polygon class="fil4" points="111.09,137.25 107.35,137.25 107.35,135.13 111.09,135.13 "/>
  <path class="fil4" d="M121.45 128.62l0 9.18c-0.01,1.38 -0.33,2.43 -0.95,3.17 -0.63,0.73 -1.53,1.1 -2.7,1.1 -1.19,0 -2.1,-0.37 -2.73,-1.11 -0.63,-0.74 -0.94,-1.81 -0.94,-3.21l0 -9.12 2.26 0 0 9.13c0,0.75 0.1,1.29 0.31,1.61 0.2,0.32 0.57,0.48 1.11,0.48 0.53,0 0.9,-0.16 1.1,-0.48 0.2,-0.32 0.3,-0.84 0.31,-1.57l0 -9.17 2.24 0zm7.4 7.5l-3.5 0 0 3.54 4.14 0 0 2.22 -6.38 0 0 -13.26 6.37 0 0 2.24 -4.12 0 0 3.13 3.5 0 0 2.13zm1.88 5.76l0 -13.26 2.94 0c1.3,0 2.33,0.49 3.11,1.48 0.77,0.98 1.17,2.33 1.18,4.04l0 2.15c0,1.74 -0.39,3.11 -1.16,4.1 -0.77,0.99 -1.84,1.49 -3.19,1.49l-2.88 0zm2.24 -11.02l0 8.8 0.67 0c0.75,0 1.27,-0.24 1.58,-0.71 0.31,-0.47 0.46,-1.28 0.48,-2.43l0 -2.3c0,-1.24 -0.15,-2.1 -0.44,-2.59 -0.29,-0.49 -0.78,-0.74 -1.48,-0.77l-0.82 0z"/>
  <path class="fil5" d="M95.5 72.15l0 -5.41c0,0 -0.02,-0.04 -0.07,-0.13 -2.03,-0.04 -3.29,-0.06 -3.79,-0.06 -2.68,0.02 -4.02,0.05 -4.02,0.09l0.07 0.07 0 5.31c0,1.14 0.09,2.05 0.26,2.72 0.04,0.15 0.34,0.33 0.89,0.52 0.55,0.19 0.92,0.29 1.12,0.29 0.09,0 0.14,0.16 0.15,0.48 0.01,0.33 -0.02,0.56 -0.08,0.71 -0.11,0 -0.77,-0.04 -1.99,-0.13 -1.22,-0.09 -2.11,-0.13 -2.67,-0.13 -0.56,0 -1.38,0.03 -2.44,0.11 -1.07,0.08 -1.77,0.12 -2.09,0.14 -0.09,-0.08 -0.13,-0.27 -0.13,-0.55 0,-0.43 0.02,-0.65 0.07,-0.65 0.26,0 0.67,-0.09 1.23,-0.26 0.56,-0.18 0.87,-0.35 0.94,-0.52 0.15,-0.58 0.23,-1.46 0.23,-2.63l0 -12.37c0,-1.32 -0.08,-2.16 -0.23,-2.53 -0.11,-0.24 -0.41,-0.44 -0.91,-0.61 -0.5,-0.18 -0.88,-0.26 -1.13,-0.26 -0.09,0 -0.13,-0.22 -0.13,-0.65 0,-0.33 0.02,-0.51 0.07,-0.55 2.98,0.13 4.48,0.19 4.5,0.19 0.56,0 2.14,-0.06 4.73,-0.19 0.06,0.11 0.09,0.34 0.09,0.68 0,0.35 -0.04,0.52 -0.13,0.52 -0.19,0 -0.57,0.09 -1.13,0.28 -0.56,0.18 -0.87,0.35 -0.94,0.5 -0.17,0.46 -0.26,1.38 -0.26,2.76l0 4.6 0.07 0.09c2.12,0.04 3.41,0.07 3.89,0.07 0.58,0 1.85,-0.02 3.79,-0.07 0.04,-0.04 0.07,-0.09 0.07,-0.13l0 -4.7c0,-1.12 -0.08,-1.97 -0.23,-2.56 -0.07,-0.17 -0.36,-0.35 -0.89,-0.55 -0.53,-0.2 -0.91,-0.29 -1.15,-0.29 -0.09,0 -0.13,-0.18 -0.14,-0.54 -0.01,-0.35 0.02,-0.57 0.11,-0.66 2.98,0.13 4.59,0.19 4.83,0.19 0.33,0 1.78,-0.06 4.37,-0.19 0.07,0.19 0.1,0.39 0.1,0.59 0,0.41 -0.06,0.61 -0.17,0.61 -0.19,0 -0.57,0.09 -1.13,0.28 -0.56,0.18 -0.86,0.35 -0.91,0.5 -0.17,0.65 -0.26,1.57 -0.26,2.76l0 12.11c0,1.17 0.09,2.08 0.26,2.75 0.04,0.15 0.34,0.31 0.89,0.49 0.55,0.17 0.92,0.26 1.12,0.26 0.08,0 0.13,0.23 0.13,0.68 0,0.17 -0.03,0.35 -0.1,0.55 -0.19,0 -0.83,-0.04 -1.91,-0.13 -1.08,-0.09 -1.9,-0.13 -2.47,-0.13 -0.58,0 -1.46,0.03 -2.64,0.11 -1.18,0.08 -1.91,0.12 -2.19,0.14 -0.08,-0.08 -0.12,-0.3 -0.11,-0.66 0.01,-0.35 0.06,-0.53 0.14,-0.53 0.24,0 0.64,-0.1 1.2,-0.29 0.56,-0.19 0.87,-0.38 0.94,-0.55 0.13,-0.5 0.19,-1.35 0.19,-2.56zm13.6 -16.87c0.95,0 2.63,-0.03 5.02,-0.08 2.4,-0.06 4.21,-0.08 5.44,-0.08 0.02,0.22 0.33,1.81 0.94,4.8 -0.11,0.1 -0.36,0.16 -0.75,0.16 -0.24,0 -0.39,-0.08 -0.45,-0.23 -0.41,-0.82 -1.06,-1.53 -1.95,-2.11 -0.88,-0.58 -1.75,-0.87 -2.59,-0.87l-1.23 0c-1.36,0 -2.06,0.14 -2.11,0.42 -0.1,0.52 -0.16,1.36 -0.16,2.53l0 4.99c0,0.13 0.46,0.19 1.39,0.19l1.71 0c1.34,0 2.07,-0.04 2.21,-0.13 0.11,-0.09 0.19,-0.4 0.26,-0.94 0.04,-0.33 0.11,-0.64 0.19,-0.94 0.02,-0.15 0.18,-0.23 0.49,-0.23 0.36,0 0.6,0.06 0.71,0.16l0 6.12c-0.09,0.09 -0.31,0.13 -0.68,0.13 -0.28,0 -0.45,-0.08 -0.52,-0.26 -0.09,-0.3 -0.16,-0.56 -0.23,-0.77 -0.07,-0.22 -0.12,-0.38 -0.16,-0.49 -0.04,-0.11 -0.09,-0.2 -0.15,-0.29 -0.06,-0.08 -0.09,-0.14 -0.11,-0.16 -0.02,-0.02 -0.07,-0.05 -0.13,-0.08 -0.07,-0.03 -0.1,-0.06 -0.13,-0.08 -0.28,-0.18 -1.12,-0.26 -2.53,-0.26 -1.55,0 -2.33,0.09 -2.33,0.29l0 4.99c0,1.03 0.09,1.8 0.26,2.3 0.11,0.34 0.84,0.52 2.2,0.52l0.85 0c1.34,0 2.54,-0.28 3.63,-0.85 0.36,-0.19 0.78,-0.56 1.24,-1.1 0.46,-0.54 0.83,-1.14 1.09,-1.81 0.02,-0.13 0.17,-0.19 0.45,-0.19 0.51,0 0.84,0.06 0.97,0.19 -1.06,2.98 -1.64,4.84 -1.75,5.57 -1.1,0 -2.85,-0.02 -5.25,-0.07 -2.4,-0.04 -4.34,-0.07 -5.83,-0.07l-4.73 0.19c-0.09,-0.08 -0.13,-0.27 -0.13,-0.55 0,-0.43 0.04,-0.65 0.13,-0.65 0.26,0 0.66,-0.08 1.21,-0.23 0.55,-0.15 0.86,-0.32 0.92,-0.49 0.13,-0.5 0.2,-1.45 0.2,-2.85l0 -12.24c0,-1.19 -0.07,-2.03 -0.2,-2.53 -0.06,-0.17 -0.38,-0.36 -0.95,-0.58 -0.58,-0.22 -0.98,-0.33 -1.22,-0.33 -0.09,0 -0.13,-0.19 -0.13,-0.58 0,-0.35 0.03,-0.55 0.1,-0.62 1.72,0.11 3.32,0.17 4.76,0.17zm14.67 5.5c0,-1.62 0.72,-3 2.15,-4.15 1.44,-1.14 3.02,-1.72 4.75,-1.72 0.45,0 0.92,0.03 1.41,0.1 0.48,0.07 0.9,0.13 1.23,0.19 0.34,0.07 0.8,0.17 1.39,0.31 0.6,0.14 1.07,0.24 1.41,0.3 0.24,2.09 0.36,3.89 0.36,5.38 -0.09,0.22 -0.25,0.33 -0.49,0.33 -0.63,0 -0.96,-0.08 -1.01,-0.23 -0.15,-1.08 -0.61,-2.11 -1.39,-3.09 -0.78,-0.98 -1.74,-1.48 -2.88,-1.48 -0.74,0 -1.36,0.23 -1.86,0.68 -0.51,0.45 -0.76,1.18 -0.76,2.17 0,0.43 0.11,0.85 0.33,1.26 0.22,0.41 0.57,0.84 1.08,1.27 0.51,0.43 0.92,0.76 1.24,0.97 0.33,0.22 0.86,0.56 1.59,1.03 0.19,0.13 0.34,0.23 0.45,0.29 0.17,0.11 0.53,0.33 1.07,0.65 0.54,0.33 0.92,0.57 1.15,0.73 0.23,0.16 0.54,0.43 0.94,0.8 0.4,0.36 0.69,0.72 0.87,1.08 0.18,0.35 0.35,0.82 0.5,1.39 0.15,0.57 0.23,1.2 0.23,1.9 0,1.72 -0.71,3.16 -2.14,4.29 -1.43,1.13 -3.07,1.7 -4.92,1.7 -1.71,0 -3.76,-0.28 -6.16,-0.85 -0.17,-0.69 -0.34,-1.64 -0.5,-2.83 -0.16,-1.2 -0.24,-2.05 -0.24,-2.54 0.06,-0.22 0.25,-0.33 0.58,-0.33 0.67,0 1.02,0.07 1.04,0.19 0.17,0.99 0.71,1.99 1.61,3 0.91,1.01 1.91,1.51 3.01,1.51 2.14,0 3.21,-1.18 3.21,-3.53 0,-0.37 -0.09,-0.73 -0.29,-1.08 -0.19,-0.36 -0.49,-0.71 -0.87,-1.06 -0.39,-0.34 -0.73,-0.62 -1.04,-0.84 -0.3,-0.22 -0.73,-0.5 -1.28,-0.84 -0.55,-0.35 -0.91,-0.57 -1.06,-0.69 -0.1,-0.06 -0.27,-0.17 -0.49,-0.32 -0.71,-0.47 -1.25,-0.85 -1.62,-1.13 -0.36,-0.28 -0.79,-0.67 -1.28,-1.17 -0.49,-0.5 -0.83,-1.04 -1.04,-1.64 -0.2,-0.59 -0.3,-1.27 -0.3,-2.02z"/>
  <path class="fil0" d="M144.22 12.13c3.14,1.9 6.28,3.79 9.42,5.69 0,26.89 0,46.32 0,73.21 0,26.56 -34.73,8.77 -45.72,32.98 0,-29.18 36.3,-15.77 36.3,-32.58l0 -79.3z"/>
  <path class="fil3" d="M146.07 15.4c1.91,1.15 3.82,2.31 5.73,3.46 0,24.06 0,48.11 0,72.17 0,4.02 -0.8,8.04 -3.97,10.78 -2.55,2.2 -6.19,3.26 -9.41,3.99 -4.22,0.96 -8.51,1.54 -12.71,2.6 -5.92,1.5 -10.9,3.8 -14.71,7.75 1,-2.74 2.7,-5.14 5.39,-7.05 2.47,-1.75 5.4,-2.86 8.29,-3.71 3.57,-1.05 7.23,-1.73 10.79,-2.79 3.15,-0.94 6.56,-2.29 8.64,-4.97 1.4,-1.81 1.98,-3.93 1.98,-6.2l0 -76.02z"/>
  <path class="fil0" d="M108.03 39.66c1.22,-11.77 9.19,-13.7 20.15,-16.12 8.08,-1.79 16.04,-4.19 15.98,-8.48l-0 -2.92c0,6.58 -8.17,7.68 -16.75,9.51 -9.51,2.03 -19.54,4.68 -19.54,15.78 0,-11.11 -10.03,-13.76 -19.54,-15.78 -8.59,-1.83 -16.75,-2.93 -16.75,-9.51l-0 2.92c-0.06,4.29 7.9,6.69 15.98,8.48 10.96,2.42 18.93,4.35 20.15,16.12l0.33 0z"/>
  <g id="_2283801964368">
   <g>
    <polygon class="fil0" points="22.1,147.02 44.74,148.79 40.83,166.87 18.84,154.19 "/>
    <polygon class="fil0" points="194.73,147.02 172.08,148.79 175.99,166.87 197.98,154.19 "/>
    <g>
     <path class="fil6" d="M216.82 157.29l-1.23 0.71c-4.74,2.75 -9.49,5.5 -14.24,8.26l3.34 6.79 -0.47 1.52 -0.67 0.36c-28.67,15.29 -62.82,21.57 -95.08,21.68l-0.13 0c-32.26,-0.11 -66.41,-6.39 -95.08,-21.68l-0.67 -0.36 -0.47 -1.52 3.34 -6.79c-4.75,-2.75 -9.49,-5.5 -14.24,-8.26l-1.23 -0.71 15.73 -6.48 -1.36 -18.85 1.07 0.6c8.12,4.57 16.37,8.94 24.49,13.51l4.82 2.71 -5.48 0.73c-2.89,0.39 -5.85,0.75 -8.7,1.36 -0.67,0.14 -2.99,0.68 -3.84,1.24 0.27,0.31 0.75,0.69 1.03,0.89 0,0 0.01,0 0.01,0 11.59,5.68 24.21,9.8 36.79,12.63 14.32,3.23 29.1,4.91 43.78,4.99l0.08 0 0.1 -0c14.68,-0.08 29.46,-1.76 43.78,-4.99 12.58,-2.84 25.19,-6.95 36.79,-12.63 0,-0 0.01,-0 0.01,-0 0.27,-0.2 0.76,-0.58 1.03,-0.89 -0.85,-0.55 -3.16,-1.09 -3.84,-1.24 -2.85,-0.61 -5.82,-0.97 -8.7,-1.36l-5.48 -0.73 4.82 -2.71c8.12,-4.57 16.37,-8.94 24.49,-13.51l1.07 -0.6 -1.36 18.85 15.73 6.48z"/>
     <path class="fil7" d="M15.73 150.81c-0.27,-4.84 -0.93,-11.8 -1.2,-16.64 6.7,3.77 17.79,9.74 24.49,13.51 -9.46,1.26 -18.46,2.46 -12.24,6.9 0.05,0.03 0.11,0.06 0.16,0.08 21.42,10.5 50.63,17.74 81.37,17.81l0.1 0 0.1 -0c30.74,-0.07 59.95,-7.31 81.37,-17.81 0.05,-0.03 0.11,-0.05 0.16,-0.08 6.23,-4.44 -2.78,-5.64 -12.24,-6.9 6.7,-3.77 17.79,-9.74 24.49,-13.51 -0.27,4.84 -0.93,11.8 -1.2,16.64 4.53,1.86 9.05,3.73 13.58,5.59 -4.15,2.41 -10.62,6.16 -15.73,9.12l3.78 7.68 -0.03 0.09c-24.04,12.82 -56.34,21.44 -94.22,21.46l-0.06 0 -0.06 -0c-37.88,-0.02 -70.18,-8.64 -94.22,-21.46l-0.03 -0.09 3.78 -7.68c-5.11,-2.96 -11.58,-6.71 -15.73,-9.12 4.53,-1.86 9.05,-3.73 13.58,-5.59z"/>
    </g>
   </g>
   <path class="fil8" d="M30.7 167.25l-1.9 -0.79 -2.67 6.4 -1.56 -0.65 2.67 -6.4 -1.87 -0.78 0.54 -1.3 5.33 2.23 -0.54 1.3zm1.72 4.87l-0.78 -0.3 -1.07 2.84 -1.57 -0.59 2.95 -7.8 2.51 0.95c0.79,0.3 1.32,0.73 1.6,1.31 0.28,0.57 0.27,1.24 -0.01,1.99 -0.39,1.04 -1.04,1.62 -1.95,1.75l0.16 3.7 -0.03 0.07 -1.69 -0.64 -0.1 -3.29zm-0.29 -1.61l0.89 0.34c0.31,0.12 0.59,0.1 0.83,-0.05 0.24,-0.15 0.42,-0.4 0.55,-0.75 0.3,-0.78 0.14,-1.29 -0.47,-1.52l-0.92 -0.35 -0.88 2.33zm10.81 -0.28l-0.42 1.23c0.23,0.05 0.43,0.05 0.58,-0.02 0.15,-0.06 0.29,-0.18 0.41,-0.37 0.12,-0.18 0.27,-0.51 0.43,-1l1 0.34c-0.29,0.87 -0.66,1.45 -1.08,1.74 -0.43,0.3 -0.97,0.35 -1.63,0.16l-1.07 3.14c-0.3,0.86 -0.76,1.45 -1.4,1.79 -0.63,0.33 -1.34,0.37 -2.14,0.1 -0.8,-0.27 -1.35,-0.73 -1.65,-1.38 -0.3,-0.65 -0.3,-1.4 -0.02,-2.27l1.78 -5.25 1.61 0.55 -1.81 5.32c-0.29,0.92 -0.11,1.49 0.54,1.71 0.64,0.22 1.13,-0.12 1.46,-1.03l1.81 -5.32 1.59 0.54zm5.98 6.38c-0.24,0.78 -0.57,1.43 -0.99,1.95 -0.42,0.52 -0.9,0.87 -1.45,1.06 -0.54,0.19 -1.1,0.19 -1.68,0.02 -0.57,-0.17 -1.03,-0.49 -1.37,-0.94 -0.35,-0.45 -0.56,-1.01 -0.62,-1.68 -0.07,-0.66 0.02,-1.38 0.25,-2.15l0.12 -0.4c0.24,-0.77 0.57,-1.42 0.99,-1.95 0.42,-0.52 0.91,-0.88 1.45,-1.07 0.54,-0.19 1.1,-0.2 1.68,-0.02 0.84,0.26 1.43,0.8 1.76,1.64 0.2,-0.04 0.37,-0.17 0.52,-0.41 0.14,-0.24 0.28,-0.56 0.4,-0.95l1.03 0.31c-0.37,1.22 -0.95,1.88 -1.72,1.97 0.08,0.67 -0,1.4 -0.24,2.19l-0.13 0.42zm-1.52 -0.86c0.26,-0.84 0.34,-1.51 0.24,-2.01 -0.09,-0.5 -0.35,-0.81 -0.76,-0.94 -0.41,-0.13 -0.79,-0.01 -1.15,0.35 -0.35,0.36 -0.65,0.95 -0.91,1.77l-0.12 0.4c-0.25,0.83 -0.33,1.5 -0.24,2.01 0.09,0.51 0.35,0.82 0.76,0.95 0.41,0.13 0.79,0.01 1.14,-0.36 0.35,-0.36 0.65,-0.96 0.91,-1.78l0.12 -0.4zm0.82 -4.42l-1.31 -0.39 -1 -2.16 1.74 0.53 0.57 2.02zm6.47 10.92l-1.62 -0.44 -0.94 -5.93 -1.43 5.28 -1.62 -0.44 2.19 -8.05 1.62 0.44 0.95 5.93 1.44 -5.29 1.62 0.44 -2.19 8.05zm7.13 0.54c-0.39,0.28 -0.83,0.46 -1.33,0.53 -0.5,0.08 -1.02,0.06 -1.57,-0.06 -0.94,-0.2 -1.61,-0.64 -2,-1.33 -0.4,-0.69 -0.49,-1.59 -0.27,-2.71l0.31 -1.47c0.24,-1.12 0.66,-1.94 1.28,-2.45 0.62,-0.5 1.4,-0.66 2.34,-0.46 0.89,0.19 1.51,0.54 1.87,1.08 0.36,0.53 0.47,1.27 0.35,2.22l-1.6 -0.34c0.06,-0.53 0.03,-0.91 -0.1,-1.13 -0.13,-0.22 -0.38,-0.38 -0.75,-0.45 -0.45,-0.09 -0.8,0 -1.07,0.28 -0.27,0.28 -0.48,0.78 -0.64,1.49l-0.31 1.48c-0.16,0.74 -0.16,1.31 -0.01,1.69 0.15,0.39 0.48,0.63 0.99,0.74 0.33,0.07 0.6,0.06 0.83,-0.03l0.17 -0.07 0.31 -1.5 -1.15 -0.24 0.26 -1.24 2.81 0.59 -0.71 3.37zm9.9 -4.24l-2.03 -0.36 -1.23 6.82 -1.66 -0.3 1.23 -6.82 -2 -0.36 0.25 -1.39 5.69 1.02 -0.25 1.39zm5.58 7.84l-1.66 -0.25 0.53 -3.53 -2.46 -0.37 -0.53 3.53 -1.66 -0.25 1.25 -8.25 1.66 0.25 -0.51 3.34 2.46 0.37 0.51 -3.34 1.66 0.25 -1.25 8.25zm3.44 -2.56l-0.36 2.91 -1.67 -0.21 1.03 -8.28 2.82 0.35c0.82,0.1 1.44,0.44 1.86,1.01 0.42,0.57 0.59,1.26 0.48,2.07 -0.1,0.81 -0.42,1.42 -0.96,1.83 -0.54,0.41 -1.24,0.56 -2.09,0.46l-1.11 -0.14zm0.17 -1.4l1.15 0.14c0.32,0.04 0.58,-0.03 0.78,-0.22 0.2,-0.19 0.33,-0.48 0.37,-0.87 0.05,-0.41 0,-0.75 -0.15,-1.02 -0.15,-0.26 -0.37,-0.42 -0.67,-0.46l-1.16 -0.14 -0.32 2.57zm10.53 -1.54l-2.05 -0.2 -0.67 6.9 -1.68 -0.16 0.67 -6.9 -2.02 -0.2 0.14 -1.4 5.75 0.56 -0.14 1.4zm5.21 3.98l-0.7 0.81 -0.1 2.38 -1.68 -0.07 0.36 -8.33 1.68 0.07 -0.16 3.63 0.57 -0.88 1.67 -2.67 2.06 0.09 -2.55 3.56 2.22 4.78 -2 -0.09 -1.38 -3.28zm9.91 3.51l-1.68 -0.03 0.06 -3.57 -2.49 -0.04 -0.06 3.57 -1.68 -0.03 0.14 -8.34 1.68 0.03 -0.06 3.38 2.49 0.04 0.06 -3.38 1.68 0.03 -0.14 8.34zm7.26 -3.46c0.01,1.12 -0.25,1.99 -0.77,2.62 -0.52,0.62 -1.25,0.94 -2.19,0.95 -0.94,0.01 -1.67,-0.29 -2.21,-0.9 -0.54,-0.61 -0.82,-1.47 -0.84,-2.57l-0.01 -1.43c-0.01,-1.15 0.25,-2.05 0.77,-2.69 0.53,-0.65 1.26,-0.98 2.2,-0.99 0.93,-0.01 1.66,0.3 2.2,0.93 0.54,0.63 0.82,1.51 0.84,2.66l0.01 1.43zm-1.7 -1.39c-0.01,-0.75 -0.12,-1.31 -0.34,-1.68 -0.22,-0.36 -0.55,-0.54 -1,-0.54 -0.45,0 -0.77,0.18 -0.99,0.54 -0.21,0.36 -0.32,0.89 -0.32,1.62l0.01 1.48c0.01,0.73 0.12,1.27 0.34,1.61 0.22,0.34 0.56,0.51 1.01,0.51 0.44,-0 0.76,-0.18 0.97,-0.52 0.21,-0.34 0.31,-0.87 0.31,-1.58l-0.01 -1.45zm6.8 2.92l-2.3 0.08 -0.39 1.72 -1.78 0.06 2.31 -8.43 1.54 -0.05 2.91 8.24 -1.8 0.06 -0.51 -1.68zm-1.98 -1.34l1.56 -0.06 -0.88 -2.95 -0.67 3zm13.65 2.24l-1.67 0.15 -0.31 -3.55 -2.48 0.22 0.31 3.55 -1.68 0.15 -0.74 -8.31 1.68 -0.15 0.3 3.37 2.48 -0.22 -0.3 -3.37 1.67 -0.15 0.74 8.31zm6.85 -4.18c0.13,1.11 -0.03,2.01 -0.49,2.68 -0.45,0.68 -1.15,1.07 -2.08,1.18 -0.93,0.11 -1.7,-0.11 -2.3,-0.66 -0.6,-0.55 -0.97,-1.37 -1.1,-2.46l-0.16 -1.42c-0.13,-1.14 0.03,-2.06 0.48,-2.76 0.45,-0.7 1.15,-1.11 2.09,-1.21 0.92,-0.11 1.69,0.12 2.29,0.69 0.6,0.57 0.98,1.42 1.11,2.55l0.16 1.42zm-1.84 -1.2c-0.09,-0.75 -0.26,-1.29 -0.51,-1.63 -0.25,-0.34 -0.61,-0.48 -1.05,-0.43 -0.44,0.05 -0.75,0.26 -0.92,0.64 -0.17,0.38 -0.22,0.92 -0.14,1.64l0.17 1.47c0.08,0.73 0.26,1.25 0.51,1.57 0.26,0.32 0.61,0.45 1.06,0.4 0.44,-0.05 0.74,-0.26 0.91,-0.62 0.17,-0.36 0.22,-0.9 0.14,-1.6l-0.17 -1.44zm-0.67 5.48c0.28,-0.03 0.51,0.02 0.7,0.15 0.19,0.13 0.3,0.31 0.33,0.54 0.03,0.23 -0.04,0.43 -0.19,0.6 -0.16,0.17 -0.37,0.27 -0.65,0.3 -0.27,0.03 -0.5,-0.02 -0.69,-0.15 -0.19,-0.13 -0.3,-0.31 -0.32,-0.54 -0.03,-0.23 0.04,-0.43 0.19,-0.6 0.16,-0.17 0.37,-0.27 0.64,-0.3zm9.37 -4.58c0.09,0.95 -0.07,1.7 -0.49,2.25 -0.42,0.55 -1.07,0.89 -1.96,1.02 -0.93,0.13 -1.69,-0.07 -2.28,-0.61 -0.59,-0.54 -0.96,-1.38 -1.12,-2.52l-0.2 -1.39c-0.16,-1.13 -0.03,-2.05 0.39,-2.74 0.43,-0.69 1.1,-1.1 2.01,-1.23 0.9,-0.13 1.62,0.02 2.16,0.46 0.54,0.44 0.91,1.12 1.11,2.05l-1.67 0.24c-0.1,-0.58 -0.25,-0.97 -0.44,-1.17 -0.2,-0.2 -0.51,-0.26 -0.95,-0.2 -0.45,0.06 -0.74,0.27 -0.88,0.6 -0.14,0.34 -0.16,0.87 -0.07,1.58l0.22 1.56c0.12,0.82 0.29,1.37 0.52,1.65 0.23,0.28 0.56,0.39 1.01,0.32 0.44,-0.06 0.73,-0.21 0.86,-0.45 0.14,-0.24 0.17,-0.64 0.12,-1.2l1.67 -0.24zm9.58 0.22c-0.26,0.4 -0.61,0.73 -1.04,0.99 -0.43,0.26 -0.93,0.43 -1.48,0.53 -0.94,0.16 -1.73,-0 -2.35,-0.5 -0.62,-0.5 -1.04,-1.3 -1.25,-2.42l-0.26 -1.48c-0.2,-1.13 -0.1,-2.05 0.29,-2.75 0.39,-0.7 1.06,-1.13 2.01,-1.29 0.89,-0.15 1.6,-0.05 2.13,0.31 0.53,0.36 0.91,1.01 1.14,1.94l-1.61 0.28c-0.13,-0.52 -0.31,-0.86 -0.51,-1.02 -0.2,-0.16 -0.49,-0.21 -0.86,-0.14 -0.45,0.08 -0.75,0.3 -0.89,0.66 -0.15,0.36 -0.16,0.9 -0.05,1.62l0.26 1.49c0.13,0.75 0.34,1.28 0.62,1.58 0.28,0.3 0.68,0.41 1.19,0.32 0.33,-0.06 0.58,-0.17 0.76,-0.34l0.13 -0.13 -0.26 -1.51 -1.16 0.2 -0.22 -1.25 2.83 -0.49 0.59 3.4zm3.1 0.25l-1.65 0.33 -1.65 -8.18 1.65 -0.33 1.65 8.18zm5.04 -2.91l-2.24 0.52 -0.05 1.76 -1.73 0.4 0.64 -8.72 1.5 -0.35 4.45 7.53 -1.75 0.41 -0.82 -1.56zm-2.2 -0.93l1.52 -0.35 -1.44 -2.72 -0.08 3.07zm-0.6 -7.52l1.77 -0.41 -1.15 2.09 -1.32 0.31 0.69 -1.98zm10.86 4.57c0.29,1.08 0.25,1.99 -0.1,2.72 -0.35,0.73 -0.98,1.22 -1.89,1.46 -0.91,0.24 -1.69,0.13 -2.37,-0.32 -0.67,-0.45 -1.16,-1.22 -1.45,-2.28l-0.37 -1.38c-0.29,-1.11 -0.27,-2.04 0.08,-2.8 0.35,-0.76 0.98,-1.26 1.89,-1.5 0.9,-0.24 1.69,-0.12 2.36,0.35 0.68,0.47 1.17,1.26 1.47,2.37l0.37 1.38zm-1.99 -0.92c-0.19,-0.73 -0.44,-1.24 -0.74,-1.54 -0.3,-0.3 -0.67,-0.39 -1.11,-0.28 -0.43,0.11 -0.71,0.37 -0.82,0.77 -0.12,0.4 -0.09,0.95 0.09,1.64l0.38 1.43c0.19,0.71 0.43,1.2 0.73,1.48 0.3,0.28 0.67,0.36 1.11,0.24 0.43,-0.11 0.7,-0.36 0.82,-0.74 0.12,-0.38 0.09,-0.92 -0.09,-1.61l-0.37 -1.4zm6.67 3.05l-2.64 -7.91 2.09 -0.7c0.92,-0.31 1.76,-0.26 2.5,0.14 0.75,0.4 1.29,1.11 1.64,2.13l0.43 1.28c0.35,1.04 0.35,1.95 -0,2.72 -0.35,0.78 -1.01,1.32 -1.97,1.65l-2.05 0.68zm-0.6 -7.11l1.76 5.25 0.48 -0.16c0.53,-0.18 0.86,-0.44 0.98,-0.8 0.12,-0.35 0.07,-0.87 -0.14,-1.57l-0.46 -1.37c-0.25,-0.74 -0.52,-1.22 -0.83,-1.44 -0.3,-0.22 -0.71,-0.26 -1.21,-0.11l-0.58 0.19zm9.12 -4.73l2.01 5.41c0.3,0.82 0.3,1.52 0.02,2.12 -0.28,0.59 -0.83,1.05 -1.65,1.35 -0.84,0.31 -1.56,0.33 -2.16,0.06 -0.6,-0.27 -1.06,-0.82 -1.37,-1.65l-2 -5.38 1.59 -0.59 2 5.38c0.16,0.44 0.35,0.73 0.57,0.87 0.21,0.14 0.51,0.13 0.88,-0.01 0.38,-0.14 0.6,-0.33 0.67,-0.57 0.07,-0.24 0.03,-0.58 -0.13,-1.01l-2.01 -5.41 1.58 -0.59zm0.5 9.29c0.26,-0.1 0.5,-0.1 0.71,-0.02 0.22,0.08 0.36,0.23 0.44,0.44 0.08,0.21 0.06,0.42 -0.05,0.63 -0.11,0.2 -0.3,0.35 -0.56,0.45 -0.26,0.1 -0.49,0.1 -0.71,0.02 -0.22,-0.08 -0.36,-0.23 -0.44,-0.44 -0.08,-0.21 -0.07,-0.42 0.04,-0.63 0.11,-0.2 0.29,-0.35 0.55,-0.45zm7.83 -6.69c0.32,0.9 0.35,1.66 0.08,2.3 -0.27,0.64 -0.82,1.13 -1.65,1.47 -0.87,0.36 -1.66,0.35 -2.36,-0.03 -0.7,-0.38 -1.27,-1.11 -1.71,-2.17l-0.54 -1.3c-0.44,-1.06 -0.53,-1.98 -0.29,-2.75 0.24,-0.77 0.79,-1.33 1.65,-1.69 0.84,-0.35 1.58,-0.37 2.2,-0.09 0.63,0.29 1.15,0.86 1.58,1.72l-1.56 0.64c-0.24,-0.54 -0.48,-0.88 -0.71,-1.02 -0.24,-0.14 -0.56,-0.13 -0.97,0.04 -0.42,0.17 -0.65,0.44 -0.71,0.8 -0.05,0.36 0.05,0.88 0.32,1.55l0.6 1.46c0.32,0.77 0.62,1.26 0.91,1.47 0.29,0.22 0.64,0.24 1.06,0.07 0.41,-0.17 0.65,-0.39 0.72,-0.65 0.07,-0.26 0.01,-0.66 -0.18,-1.19l1.56 -0.64z"/>
   <path class="fil9" d="M14.13 167.18c52.2,27.71 133.6,28.86 188.56,0"/>
  </g>
  <polygon class="fil8" points="266.21,24.87 259.81,24.87 259.81,46.4 254.57,46.4 254.57,24.87 248.27,24.87 248.27,20.5 266.21,20.5 "/>
  <path id="1" class="fil8" d="M278.84 36.96l-2.6 0 0 9.43 -5.23 0 0 -25.9 8.34 0c2.62,0 4.64,0.68 6.07,2.04 1.43,1.36 2.14,3.3 2.14,5.8 0,3.45 -1.25,5.86 -3.75,7.24l4.53 10.57 0 0.25 -5.62 0 -3.89 -9.43zm-2.6 -4.37l2.97 0c1.04,0 1.83,-0.35 2.35,-1.04 0.52,-0.7 0.78,-1.63 0.78,-2.79 0,-2.6 -1.01,-3.9 -3.04,-3.9l-3.06 0 0 7.72z"/>
  <path id="2" class="fil8" d="M309.76 20.5l0 4.04c0.73,-0.09 1.3,-0.29 1.69,-0.63 0.39,-0.34 0.67,-0.83 0.85,-1.49 0.18,-0.65 0.27,-1.77 0.27,-3.36l3.27 0c0,2.84 -0.48,4.92 -1.44,6.21 -0.96,1.3 -2.51,2 -4.64,2.11l0 10.31c-0.02,2.82 -0.8,5.04 -2.31,6.65 -1.52,1.61 -3.58,2.42 -6.19,2.42 -2.63,0 -4.71,-0.8 -6.23,-2.41 -1.52,-1.61 -2.29,-3.82 -2.32,-6.65l0 -17.2 5.26 0 0 17.44c0.07,2.99 1.17,4.49 3.29,4.49 2.11,0 3.2,-1.49 3.27,-4.49l0 -17.44 5.23 0z"/>
  <path id="3" class="fil8" d="M335.69 34.03c0,2.54 -0.39,4.77 -1.17,6.7 -0.78,1.92 -1.89,3.41 -3.33,4.46 -1.45,1.05 -3.1,1.58 -4.96,1.58 -1.84,0 -3.48,-0.52 -4.93,-1.55 -1.45,-1.03 -2.57,-2.5 -3.36,-4.41 -0.8,-1.91 -1.2,-4.11 -1.21,-6.6l0 -1.3c0,-2.51 0.39,-4.74 1.17,-6.68 0.78,-1.94 1.89,-3.44 3.34,-4.49 1.44,-1.06 3.09,-1.58 4.95,-1.58 2.74,0 4.98,1.09 6.72,3.28 0.56,-0.29 0.94,-0.85 1.16,-1.69 0.21,-0.84 0.32,-1.91 0.32,-3.19l3.34 0c0,3.96 -1.11,6.43 -3.33,7.42 0.83,1.92 1.26,4.16 1.28,6.71l0 1.35zm-5.3 -1.17c0,-2.72 -0.36,-4.78 -1.09,-6.18 -0.73,-1.4 -1.77,-2.1 -3.1,-2.1 -1.34,0 -2.37,0.69 -3.09,2.06 -0.72,1.38 -1.08,3.41 -1.09,6.1l0 1.3c0,2.7 0.36,4.75 1.09,6.18 0.73,1.43 1.77,2.14 3.13,2.14 1.34,0 2.36,-0.7 3.07,-2.1 0.72,-1.4 1.07,-3.44 1.09,-6.09l0 -1.3zm-1.58 -13.87l-4.25 0.02 -4.91 -5.5 5.64 0 3.52 5.48z"/>
  <polygon id="4" class="fil8" points="359.5,46.4 354.27,46.4 346.62,29.41 346.62,46.4 341.39,46.4 341.39,20.5 346.62,20.5 354.29,37.5 354.29,20.5 359.5,20.5 "/>
  <path id="5" class="fil8" d="M383.08 43.47c-1.01,1.09 -2.24,1.91 -3.71,2.47 -1.46,0.55 -3.07,0.83 -4.81,0.83 -2.97,0 -5.29,-0.92 -6.94,-2.77 -1.65,-1.85 -2.49,-4.53 -2.54,-8.06l0 -4.66c0,-3.57 0.78,-6.32 2.34,-8.25 1.56,-1.92 3.83,-2.89 6.82,-2.89 2.81,0 4.93,0.69 6.36,2.08 1.43,1.39 2.25,3.56 2.48,6.53l-5.09 0c-0.14,-1.65 -0.49,-2.78 -1.03,-3.38 -0.54,-0.6 -1.4,-0.9 -2.56,-0.9 -1.41,0 -2.44,0.52 -3.08,1.55 -0.64,1.03 -0.97,2.68 -1,4.94l0 4.7c0,2.36 0.35,4.08 1.06,5.15 0.7,1.07 1.86,1.61 3.48,1.61 1.03,0 1.86,-0.21 2.51,-0.63l0.46 -0.32 0 -4.77 -3.66 0 0 -3.93 8.91 0 0 10.7z"/>
  <path id="6" class="fil8" d="M397.48 46.4l0 -11.4 -2.77 0 0 -3.24 2.77 0 0 -11.25 6.85 0c3.02,0 5.43,0.96 7.23,2.88 1.8,1.92 2.71,4.55 2.74,7.9l0 4.19c0,3.41 -0.89,6.08 -2.69,8.01 -1.8,1.94 -4.27,2.91 -7.43,2.91l-6.7 0zm8.02 -11.4l-2.79 0 0 7.07 1.81 0c1.65,-0.04 2.81,-0.52 3.48,-1.45 0.68,-0.93 1.03,-2.51 1.07,-4.74l0 -4.44c0,-2.42 -0.34,-4.1 -1.01,-5.06 -0.67,-0.95 -1.83,-1.45 -3.45,-1.5l-1.91 0 0 6.88 2.79 0 0 3.24z"/>
  <path id="7" class="fil8" d="M431.81 41.12l-7.13 0 -1.38 5.28 -5.53 0 8.09 -25.9 4.79 0 8.14 25.9 -5.58 0 -1.38 -5.28zm-5.99 -4.37l4.84 0 -2.42 -9.24 -2.42 9.24zm2.48 11.22c0.87,0 1.57,0.24 2.11,0.7 0.54,0.47 0.81,1.06 0.81,1.77 0,0.71 -0.27,1.31 -0.81,1.77 -0.54,0.47 -1.24,0.7 -2.11,0.7 -0.85,0 -1.55,-0.24 -2.09,-0.7 -0.54,-0.47 -0.81,-1.06 -0.81,-1.77 0,-0.71 0.27,-1.31 0.81,-1.77 0.54,-0.47 1.24,-0.7 2.09,-0.7z"/>
  <polygon id="8" class="fil8" points="448.42,46.4 443.2,46.4 443.2,20.5 448.42,20.5 "/>
  <polygon id="9" class="fil8" points="481.14,46.4 475.93,46.4 475.93,35.33 468.21,35.33 468.21,46.4 462.98,46.4 462.98,20.5 468.21,20.5 468.21,30.99 475.93,30.99 475.93,20.5 481.14,20.5 "/>
  <path id="10" class="fil8" d="M505.34 35.78c0,3.48 -0.82,6.17 -2.46,8.1 -1.64,1.92 -3.92,2.88 -6.84,2.88 -2.91,0 -5.19,-0.95 -6.85,-2.86 -1.66,-1.9 -2.5,-4.57 -2.53,-7.99l0 -4.43c0,-3.56 0.83,-6.34 2.47,-8.34 1.65,-2 3.94,-3 6.87,-3 2.88,0 5.15,0.98 6.81,2.94 1.66,1.97 2.5,4.72 2.53,8.27l0 4.43zm-5.24 -4.35c0,-2.34 -0.33,-4.07 -1,-5.21 -0.66,-1.13 -1.69,-1.71 -3.1,-1.71 -1.38,0 -2.41,0.55 -3.08,1.65 -0.66,1.1 -1.01,2.77 -1.03,5.01l0 4.61c0,2.27 0.34,3.94 1.01,5.01 0.68,1.07 1.72,1.61 3.13,1.61 1.37,0 2.38,-0.52 3.04,-1.57 0.66,-1.05 1,-2.68 1.01,-4.89l0 -4.5zm-4.04 16.65c0.87,0 1.57,0.24 2.11,0.7 0.54,0.47 0.81,1.06 0.81,1.77 0,0.71 -0.27,1.31 -0.81,1.77 -0.54,0.47 -1.24,0.7 -2.11,0.7 -0.85,0 -1.55,-0.24 -2.09,-0.7 -0.54,-0.47 -0.81,-1.06 -0.81,-1.77 0,-0.71 0.27,-1.31 0.81,-1.77 0.54,-0.47 1.24,-0.7 2.09,-0.7z"/>
  <path id="11" class="fil8" d="M528.4 37.78c-0.13,2.96 -0.96,5.19 -2.49,6.7 -1.53,1.52 -3.69,2.28 -6.47,2.28 -2.93,0 -5.17,-0.97 -6.73,-2.89 -1.56,-1.93 -2.34,-4.68 -2.34,-8.25l0 -4.36c0,-3.56 0.81,-6.3 2.42,-8.23 1.61,-1.92 3.85,-2.89 6.73,-2.89 2.82,0 4.97,0.79 6.43,2.36 1.46,1.58 2.29,3.84 2.5,6.79l-5.24 0c-0.05,-1.83 -0.33,-3.08 -0.84,-3.78 -0.52,-0.69 -1.46,-1.04 -2.83,-1.04 -1.4,0 -2.39,0.49 -2.97,1.47 -0.58,0.98 -0.89,2.59 -0.92,4.84l0 4.9c0,2.57 0.29,4.35 0.86,5.31 0.58,0.97 1.56,1.44 2.96,1.44 1.37,0 2.33,-0.33 2.85,-1.01 0.52,-0.67 0.81,-1.88 0.89,-3.64l5.23 0z"/>
  <path id="12" class="fil8" d="M559.4 43.47c-1.01,1.09 -2.24,1.91 -3.71,2.47 -1.46,0.55 -3.07,0.83 -4.81,0.83 -2.97,0 -5.29,-0.92 -6.94,-2.77 -1.65,-1.85 -2.49,-4.53 -2.54,-8.06l0 -4.66c0,-3.57 0.78,-6.32 2.34,-8.25 1.56,-1.92 3.83,-2.89 6.82,-2.89 2.81,0 4.93,0.69 6.36,2.08 1.43,1.39 2.25,3.56 2.48,6.53l-5.09 0c-0.14,-1.65 -0.49,-2.78 -1.03,-3.38 -0.54,-0.6 -1.4,-0.9 -2.56,-0.9 -1.41,0 -2.44,0.52 -3.08,1.55 -0.64,1.03 -0.97,2.68 -1,4.94l0 4.7c0,2.36 0.35,4.08 1.06,5.15 0.7,1.07 1.86,1.61 3.48,1.61 1.03,0 1.86,-0.21 2.51,-0.63l0.46 -0.32 0 -4.77 -3.66 0 0 -3.93 8.91 0 0 10.7z"/>
  <polygon id="13" class="fil8" points="570.32,46.4 565.1,46.4 565.1,20.5 570.32,20.5 "/>
  <path id="14" class="fil8" d="M589.17 41.12l-7.13 0 -1.38 5.28 -5.53 0 8.09 -25.9 4.79 0 8.14 25.9 -5.58 0 -1.38 -5.28zm-5.99 -4.37l4.84 0 -2.42 -9.24 -2.42 9.24zm3.5 -23.17l5.66 0 -4.95 5.5 -4.19 0 3.48 -5.5z"/>
  <path id="15" class="fil8" d="M618.19 35.78c0,3.48 -0.82,6.17 -2.46,8.1 -1.64,1.92 -3.92,2.88 -6.84,2.88 -2.91,0 -5.19,-0.95 -6.85,-2.86 -1.66,-1.9 -2.5,-4.57 -2.53,-7.99l0 -4.43c0,-3.56 0.83,-6.34 2.47,-8.34 1.65,-2 3.94,-3 6.87,-3 2.88,0 5.15,0.98 6.81,2.94 1.66,1.97 2.5,4.72 2.53,8.27l0 4.43zm-5.24 -4.35c0,-2.34 -0.33,-4.07 -1,-5.21 -0.66,-1.13 -1.69,-1.71 -3.1,-1.71 -1.38,0 -2.41,0.55 -3.08,1.65 -0.66,1.1 -1.01,2.77 -1.03,5.01l0 4.61c0,2.27 0.34,3.94 1.01,5.01 0.68,1.07 1.72,1.61 3.13,1.61 1.37,0 2.38,-0.52 3.04,-1.57 0.66,-1.05 1,-2.68 1.01,-4.89l0 -4.5z"/>
  <path id="16" class="fil8" d="M632.1 46.4l0 -25.9 6.85 0c3.02,0 5.43,0.96 7.23,2.88 1.8,1.92 2.71,4.55 2.74,7.9l0 4.19c0,3.41 -0.9,6.08 -2.69,8.01 -1.8,1.94 -4.27,2.91 -7.43,2.91l-6.7 0zm5.23 -21.53l0 17.19 1.57 0c1.74,0 2.97,-0.46 3.68,-1.38 0.71,-0.92 1.08,-2.5 1.12,-4.75l0 -4.5c0,-2.42 -0.34,-4.1 -1.01,-5.06 -0.67,-0.95 -1.83,-1.45 -3.45,-1.5l-1.91 0z"/>
  <path id="17" class="fil8" d="M671.28 20.5l0 17.93c-0.02,2.7 -0.76,4.75 -2.22,6.19 -1.46,1.43 -3.55,2.14 -6.28,2.14 -2.77,0 -4.89,-0.72 -6.36,-2.17 -1.46,-1.45 -2.19,-3.54 -2.19,-6.28l0 -17.81 5.26 0 0 17.84c0,1.47 0.24,2.52 0.71,3.15 0.47,0.63 1.34,0.94 2.58,0.94 1.24,0 2.1,-0.31 2.56,-0.93 0.46,-0.63 0.7,-1.65 0.71,-3.07l0 -17.92 5.23 0zm-8.61 27.57c0.87,0 1.57,0.24 2.11,0.7 0.54,0.47 0.81,1.06 0.81,1.77 0,0.71 -0.27,1.31 -0.81,1.77 -0.54,0.47 -1.24,0.7 -2.11,0.7 -0.85,0 -1.55,-0.24 -2.09,-0.7 -0.54,-0.47 -0.81,-1.06 -0.81,-1.77 0,-0.71 0.27,-1.31 0.81,-1.77 0.54,-0.47 1.24,-0.7 2.09,-0.7z"/>
  <path id="18" class="fil8" d="M694.56 37.78c-0.13,2.96 -0.96,5.19 -2.49,6.7 -1.53,1.52 -3.69,2.28 -6.47,2.28 -2.93,0 -5.17,-0.97 -6.73,-2.89 -1.56,-1.93 -2.34,-4.68 -2.34,-8.25l0 -4.36c0,-3.56 0.81,-6.3 2.42,-8.23 1.61,-1.92 3.85,-2.89 6.73,-2.89 2.82,0 4.97,0.79 6.43,2.36 1.46,1.58 2.29,3.84 2.5,6.79l-5.24 0c-0.05,-1.83 -0.33,-3.08 -0.84,-3.78 -0.52,-0.69 -1.46,-1.04 -2.83,-1.04 -1.4,0 -2.39,0.49 -2.97,1.47 -0.58,0.98 -0.89,2.59 -0.92,4.84l0 4.9c0,2.57 0.29,4.35 0.86,5.31 0.58,0.97 1.56,1.44 2.96,1.44 1.37,0 2.33,-0.33 2.85,-1.01 0.52,-0.67 0.81,-1.88 0.89,-3.64l5.23 0z"/>
  <polygon id="19" class="fil8" points="716.76,37.37 708.06,37.37 708.06,33.21 716.76,33.21 "/>
  <path id="20" class="fil8" d="M731.89 46.4l0 -11.4 -2.77 0 0 -3.24 2.77 0 0 -11.25 6.85 0c3.02,0 5.43,0.96 7.23,2.88 1.8,1.92 2.71,4.55 2.74,7.9l0 4.19c0,3.41 -0.89,6.08 -2.69,8.01 -1.8,1.94 -4.27,2.91 -7.43,2.91l-6.7 0zm8.02 -11.4l-2.79 0 0 7.07 1.81 0c1.65,-0.04 2.81,-0.52 3.48,-1.45 0.68,-0.93 1.03,-2.51 1.07,-4.74l0 -4.44c0,-2.42 -0.34,-4.1 -1.01,-5.06 -0.67,-0.95 -1.83,-1.45 -3.45,-1.5l-1.91 0 0 6.88 2.79 0 0 3.24z"/>
  <polygon id="21" class="fil8" points="772.39,46.4 767.18,46.4 767.18,35.33 759.46,35.33 759.46,46.4 754.24,46.4 754.24,20.5 759.46,20.5 759.46,30.99 767.18,30.99 767.18,20.5 772.39,20.5 "/>
  <path id="22" class="fil8" d="M796.58 35.46c0,4.29 -1.15,7.4 -3.47,9.34l3.58 3.2 -3.29 3.02 -4.77 -4.36 -1.37 0.09c-2.93,0 -5.22,-1 -6.87,-2.98 -1.66,-1.98 -2.49,-4.74 -2.5,-8.25l0 -4.06c0,-3.56 0.83,-6.34 2.47,-8.34 1.65,-2 3.94,-3 6.87,-3 2.86,0 5.12,0.96 6.77,2.88 1.66,1.92 2.53,4.62 2.58,8.1l0 4.34zm-5.24 -4.03c0,-2.36 -0.34,-4.1 -1.01,-5.23 -0.67,-1.12 -1.71,-1.69 -3.1,-1.69 -1.38,0 -2.41,0.55 -3.08,1.65 -0.66,1.1 -1.01,2.77 -1.03,5.01l0 4.29c0,2.37 0.34,4.12 1.02,5.25 0.68,1.12 1.72,1.69 3.12,1.69 1.37,0 2.38,-0.56 3.05,-1.68 0.67,-1.12 1.01,-2.83 1.02,-5.14l0 -4.15z"/>
  <path id="23" class="fil8" d="M819.72 43.47c-1.01,1.09 -2.24,1.91 -3.71,2.47 -1.46,0.55 -3.07,0.83 -4.81,0.83 -2.97,0 -5.29,-0.92 -6.94,-2.77 -1.65,-1.85 -2.49,-4.53 -2.54,-8.06l0 -4.66c0,-3.57 0.78,-6.32 2.34,-8.25 1.56,-1.92 3.83,-2.89 6.82,-2.89 2.81,0 4.93,0.69 6.36,2.08 1.43,1.39 2.25,3.56 2.48,6.53l-5.09 0c-0.14,-1.65 -0.49,-2.78 -1.03,-3.38 -0.54,-0.6 -1.4,-0.9 -2.56,-0.9 -1.41,0 -2.44,0.52 -3.08,1.55 -0.64,1.03 -0.97,2.68 -1,4.94l0 4.7c0,2.36 0.35,4.08 1.06,5.15 0.7,1.07 1.86,1.61 3.48,1.61 1.03,0 1.86,-0.21 2.51,-0.63l0.46 -0.32 0 -4.77 -3.66 0 0 -3.93 8.91 0 0 10.7z"/>
  <polygon id="24" class="fil8" points="843.34,46.4 838.13,46.4 838.13,35.33 830.41,35.33 830.41,46.4 825.19,46.4 825.19,20.5 830.41,20.5 830.41,30.99 838.13,30.99 838.13,20.5 843.34,20.5 "/>
  <polygon id="25" class="fil8" points="867.41,46.4 862.18,46.4 854.53,29.41 854.53,46.4 849.3,46.4 849.3,20.5 854.53,20.5 862.2,37.5 862.2,20.5 867.41,20.5 "/>
  <polygon class="fil8" points="273.88,77.44 264.59,77.44 264.59,102.66 257.12,102.66 257.12,77.44 248,77.44 248,71.69 273.88,71.69 "/>
  <path id="1" class="fil8" d="M288.53 91.72l-4.04 0 0 10.93 -7.47 0 0 -30.97 12.19 0c3.67,0 6.54,0.81 8.62,2.45 2.07,1.63 3.1,3.93 3.1,6.91 0,2.16 -0.44,3.94 -1.31,5.36 -0.87,1.42 -2.24,2.56 -4.09,3.44l6.47 12.49 0 0.32 -8 0 -5.47 -10.93zm-4.04 -5.75l4.72 0c1.42,0 2.48,-0.37 3.2,-1.12 0.72,-0.75 1.07,-1.79 1.07,-3.13 0,-1.34 -0.36,-2.39 -1.09,-3.15 -0.72,-0.76 -1.79,-1.14 -3.19,-1.14l-4.72 0 0 8.54z"/>
  <path id="2" class="fil8" d="M329.74 71.69l0 4.92c1.03,-0.07 1.84,-0.3 2.4,-0.7 0.57,-0.39 0.97,-0.96 1.21,-1.69 0.24,-0.73 0.36,-2.15 0.36,-4.26l4.36 0c0,3.57 -0.67,6.13 -2,7.67 -1.34,1.55 -3.46,2.37 -6.33,2.47l0 11.86c0,2.3 -0.49,4.29 -1.47,5.97 -0.98,1.68 -2.38,2.96 -4.21,3.84 -1.83,0.88 -3.99,1.32 -6.49,1.32 -3.77,0 -6.74,-0.98 -8.91,-2.93 -2.17,-1.96 -3.28,-4.64 -3.32,-8.04l0 -20.43 7.51 0 0 20.57c0.08,3.39 1.66,5.08 4.72,5.08 1.55,0 2.71,-0.43 3.51,-1.28 0.79,-0.85 1.19,-2.24 1.19,-4.14l0 -20.23 7.46 0z"/>
  <path id="3" class="fil8" d="M363.08 87.81c0,3.03 -0.57,5.72 -1.69,8.04 -1.13,2.33 -2.72,4.12 -4.79,5.36 -2.06,1.25 -4.41,1.87 -7.05,1.87 -2.63,0 -4.97,-0.61 -7.02,-1.83 -2.04,-1.22 -3.63,-2.97 -4.77,-5.23 -1.14,-2.27 -1.73,-4.89 -1.78,-7.83l0 -1.64c0,-3.05 0.56,-5.73 1.67,-8.04 1.11,-2.32 2.7,-4.1 4.76,-5.36 2.07,-1.26 4.43,-1.89 7.09,-1.89 2.03,0 3.89,0.37 5.57,1.11 1.68,0.74 3.14,1.81 4.36,3.2 0.76,-0.27 1.33,-0.86 1.68,-1.76 0.36,-0.9 0.54,-2.32 0.54,-4.24l4.34 0c0,4.96 -1.52,8 -4.55,9.13 1.06,2.26 1.6,4.85 1.62,7.77l0 1.34zm-7.59 -1.27c0,-3.09 -0.52,-5.44 -1.55,-7.05 -1.04,-1.6 -2.51,-2.4 -4.43,-2.4 -3.72,0 -5.7,2.82 -5.91,8.47l-0.02 2.29c0,3.06 0.5,5.41 1.5,7.05 1,1.63 2.5,2.45 4.48,2.45 1.9,0 3.36,-0.81 4.38,-2.42 1.02,-1.61 1.54,-3.93 1.55,-6.95l0 -1.44zm-2.53 -16.66l-5.83 0.02 -6 -6.66 7.57 0 4.25 6.64z"/>
  <polygon id="4" class="fil8" points="393.56,102.66 386.14,102.66 375.17,83.38 375.17,102.66 367.71,102.66 367.71,71.69 375.17,71.69 386.12,90.96 386.12,71.69 393.56,71.69 "/>
  <path id="5" class="fil8" d="M423.65 98.83c-1.15,1.28 -2.83,2.31 -5.04,3.09 -2.21,0.78 -4.64,1.17 -7.27,1.17 -4.05,0 -7.3,-1.24 -9.72,-3.72 -2.42,-2.48 -3.72,-5.93 -3.89,-10.36l-0.02 -2.68c0,-3.05 0.54,-5.71 1.62,-7.98 1.07,-2.27 2.62,-4.03 4.62,-5.26 2,-1.23 4.33,-1.84 6.97,-1.84 3.85,0 6.84,0.89 8.98,2.65 2.13,1.76 3.38,4.4 3.74,7.9l-7.19 0c-0.25,-1.73 -0.81,-2.95 -1.65,-3.69 -0.85,-0.73 -2.05,-1.1 -3.61,-1.1 -1.87,0 -3.32,0.79 -4.34,2.38 -1.02,1.59 -1.54,3.85 -1.55,6.8l0 1.87c0,3.09 0.53,5.42 1.59,6.96 1.05,1.55 2.71,2.33 4.99,2.33 1.94,0 3.38,-0.44 4.33,-1.3l0 -4.8 -5.19 0 0 -5.14 12.66 0 0 12.73z"/>
  <polygon id="6" class="fil8" points="461.86,77.44 452.56,77.44 452.56,102.66 445.1,102.66 445.1,77.44 435.97,77.44 435.97,71.69 461.86,71.69 "/>
  <polygon id="7" class="fil8" points="490.88,102.66 483.46,102.66 483.46,89.72 472.47,89.72 472.47,102.66 465,102.66 465,71.69 472.47,71.69 472.47,83.97 483.46,83.97 483.46,71.69 490.88,71.69 "/>
  <path id="8" class="fil8" d="M503.07 92.12l0 10.54 -7.46 0 0 -30.97 12.35 0c2.37,0 4.46,0.44 6.29,1.31 1.82,0.87 3.23,2.11 4.23,3.72 0.99,1.6 1.5,3.43 1.5,5.47 0,3.01 -1.08,5.42 -3.24,7.23 -2.16,1.81 -5.12,2.71 -8.9,2.71l-4.76 0zm0 -5.75l4.89 0c1.44,0 2.55,-0.36 3.3,-1.08 0.76,-0.73 1.14,-1.74 1.14,-3.06 0,-1.44 -0.39,-2.6 -1.17,-3.46 -0.78,-0.87 -1.84,-1.31 -3.19,-1.32l-4.98 0 0 8.93z"/>
  <polygon id="9" class="fil8" points="548.26,77.44 538.97,77.44 538.97,102.66 531.5,102.66 531.5,77.44 522.37,77.44 522.37,71.69 548.26,71.69 "/>
  <polygon id="10" class="fil8" points="571.5,91.13 568.45,94.49 568.45,102.66 560.98,102.66 560.98,71.69 568.45,71.69 568.45,85.34 571.04,81.41 577.72,71.69 586.94,71.69 576.48,85.39 586.94,102.66 578.1,102.66 "/>
  <polygon id="11" class="fil8" points="614.72,102.66 607.29,102.66 607.29,89.72 596.3,89.72 596.3,102.66 588.83,102.66 588.83,71.69 596.3,71.69 596.3,83.97 607.29,83.97 607.29,71.69 614.72,71.69 "/>
  <path id="12" class="fil8" d="M645.65 87.81c0,3.02 -0.56,5.7 -1.68,8.02 -1.12,2.33 -2.71,4.12 -4.78,5.38 -2.06,1.26 -4.41,1.88 -7.05,1.88 -2.63,0 -4.98,-0.61 -7.02,-1.82 -2.04,-1.21 -3.63,-2.95 -4.78,-5.2 -1.14,-2.25 -1.73,-4.84 -1.79,-7.77l0 -1.74c0,-3.03 0.55,-5.71 1.67,-8.04 1.11,-2.32 2.71,-4.11 4.78,-5.37 2.08,-1.26 4.44,-1.89 7.09,-1.89 2.62,0 4.96,0.62 7.02,1.87 2.05,1.25 3.65,3.03 4.8,5.33 1.14,2.31 1.71,4.95 1.73,7.93l0 1.42zm-7.59 -1.27c0,-3.09 -0.51,-5.44 -1.54,-7.05 -1.03,-1.6 -2.5,-2.4 -4.41,-2.4 -3.75,0 -5.72,2.82 -5.93,8.47l-0.02 2.29c0,3.05 0.5,5.39 1.51,7.03 1,1.64 2.5,2.46 4.49,2.46 1.89,0 3.34,-0.81 4.36,-2.42 1.02,-1.61 1.54,-3.93 1.55,-6.95l0 -1.44z"/>
  <path id="13" class="fil8" d="M666.65 96.86l-10.23 0 -1.79 5.79 -7.98 0 11.36 -30.97 7.01 0 11.45 30.97 -8.02 0 -1.81 -5.79zm-8.44 -5.75l6.66 0 -3.34 -10.75 -3.32 10.75z"/>
  <polygon id="14" class="fil8" points="715.46,102.66 708.03,102.66 708.03,89.72 697.04,89.72 697.04,102.66 689.57,102.66 689.57,71.69 697.04,71.69 697.04,83.97 708.03,83.97 708.03,71.69 715.46,71.69 "/>
  <path id="15" class="fil8" d="M746.39 87.81c0,3.02 -0.56,5.7 -1.68,8.02 -1.12,2.33 -2.71,4.12 -4.78,5.38 -2.06,1.26 -4.41,1.88 -7.05,1.88 -2.63,0 -4.98,-0.61 -7.02,-1.82 -2.04,-1.21 -3.63,-2.95 -4.78,-5.2 -1.14,-2.25 -1.73,-4.84 -1.79,-7.77l0 -1.74c0,-3.03 0.55,-5.71 1.67,-8.04 1.11,-2.32 2.71,-4.11 4.78,-5.37 2.08,-1.26 4.44,-1.89 7.09,-1.89 2.62,0 4.96,0.62 7.02,1.87 2.05,1.25 3.65,3.03 4.8,5.33 1.14,2.31 1.71,4.95 1.73,7.93l0 1.42zm-7.59 -1.27c0,-3.09 -0.51,-5.44 -1.54,-7.05 -1.03,-1.6 -2.5,-2.4 -4.41,-2.4 -3.75,0 -5.72,2.82 -5.93,8.47l-0.02 2.29c0,3.05 0.5,5.39 1.51,7.03 1,1.64 2.5,2.46 4.49,2.46 1.89,0 3.34,-0.81 4.36,-2.42 1.02,-1.61 1.54,-3.93 1.55,-6.95l0 -1.44zm-9.76 21.04c0,-0.92 0.38,-1.68 1.14,-2.29 0.75,-0.59 1.71,-0.89 2.84,-0.89 1.13,0 2.08,0.3 2.84,0.89 0.76,0.6 1.14,1.36 1.14,2.29 0,0.92 -0.38,1.68 -1.14,2.29 -0.75,0.59 -1.71,0.89 -2.84,0.89 -1.13,0 -2.08,-0.3 -2.84,-0.89 -0.76,-0.6 -1.14,-1.37 -1.14,-2.29z"/>
  <path id="16" class="fil8" d="M775.3 92.18c-0.1,2.16 -0.68,4.06 -1.75,5.71 -1.06,1.65 -2.56,2.93 -4.47,3.83 -1.92,0.91 -4.12,1.36 -6.58,1.36 -4.07,0 -7.27,-1.33 -9.61,-3.98 -2.34,-2.65 -3.51,-6.4 -3.51,-11.23l0 -1.53c0,-3.03 0.53,-5.69 1.59,-7.96 1.05,-2.28 2.58,-4.04 4.56,-5.28 1.98,-1.24 4.28,-1.86 6.89,-1.86 3.76,0 6.78,0.99 9.06,2.97 2.29,1.97 3.58,4.7 3.89,8.17l-7.44 0c-0.06,-1.89 -0.53,-3.24 -1.42,-4.07 -0.89,-0.82 -2.26,-1.23 -4.09,-1.23 -1.86,0 -3.22,0.7 -4.08,2.08 -0.86,1.39 -1.32,3.61 -1.37,6.67l0 2.19c0,3.3 0.41,5.67 1.25,7.09 0.83,1.42 2.26,2.13 4.28,2.13 1.71,0 3.03,-0.41 3.93,-1.21 0.91,-0.81 1.39,-2.1 1.44,-3.86l7.43 0z"/>
  <path id="17" class="fil8" d="M815.04 98.83c-1.15,1.28 -2.83,2.31 -5.04,3.09 -2.21,0.78 -4.64,1.17 -7.27,1.17 -4.05,0 -7.3,-1.24 -9.72,-3.72 -2.42,-2.48 -3.72,-5.93 -3.89,-10.36l-0.02 -2.68c0,-3.05 0.54,-5.71 1.62,-7.98 1.07,-2.27 2.62,-4.03 4.62,-5.26 2,-1.23 4.33,-1.84 6.97,-1.84 3.85,0 6.84,0.89 8.98,2.65 2.13,1.76 3.38,4.4 3.74,7.9l-7.19 0c-0.25,-1.73 -0.81,-2.95 -1.65,-3.69 -0.85,-0.73 -2.05,-1.1 -3.61,-1.1 -1.87,0 -3.32,0.79 -4.34,2.38 -1.02,1.59 -1.54,3.85 -1.55,6.8l0 1.87c0,3.09 0.53,5.42 1.59,6.96 1.05,1.55 2.71,2.33 4.99,2.33 1.94,0 3.38,-0.44 4.33,-1.3l0 -4.8 -5.19 0 0 -5.14 12.66 0 0 12.73z"/>
  <polygon id="18" class="fil8" points="827.32,102.66 819.88,102.66 819.88,71.69 827.32,71.69 "/>
  <path id="19" class="fil8" d="M850.48 96.86l-10.23 0 -1.79 5.79 -7.98 0 11.36 -30.97 7.01 0 11.45 30.97 -8.02 0 -1.81 -5.79zm-8.44 -5.75l6.66 0 -3.34 -10.75 -3.32 10.75zm4.29 -27.7l7.57 0 -5.92 6.66 -5.84 -0.02 4.19 -6.64z"/>
  <path id="20" class="fil8" d="M888.32 87.81c0,3.02 -0.56,5.7 -1.68,8.02 -1.12,2.33 -2.71,4.12 -4.78,5.38 -2.06,1.26 -4.41,1.88 -7.05,1.88 -2.63,0 -4.98,-0.61 -7.02,-1.82 -2.04,-1.21 -3.63,-2.95 -4.78,-5.2 -1.14,-2.25 -1.73,-4.84 -1.79,-7.77l0 -1.74c0,-3.03 0.55,-5.71 1.67,-8.04 1.11,-2.32 2.71,-4.11 4.78,-5.37 2.08,-1.26 4.44,-1.89 7.09,-1.89 2.62,0 4.96,0.62 7.02,1.87 2.05,1.25 3.65,3.03 4.8,5.33 1.14,2.31 1.71,4.95 1.73,7.93l0 1.42zm-7.59 -1.27c0,-3.09 -0.51,-5.44 -1.54,-7.05 -1.03,-1.6 -2.5,-2.4 -4.41,-2.4 -3.75,0 -5.72,2.82 -5.93,8.47l-0.02 2.29c0,3.05 0.5,5.39 1.51,7.03 1,1.64 2.5,2.46 4.49,2.46 1.89,0 3.34,-0.81 4.36,-2.42 1.02,-1.61 1.54,-3.93 1.55,-6.95l0 -1.44z"/>
  <path id="21" class="fil8" d="M903.03 102.66l0 -30.97 9.97 0c2.74,0 5.2,0.62 7.38,1.86 2.18,1.24 3.89,2.99 5.11,5.26 1.23,2.26 1.85,4.8 1.87,7.61l0 1.42c0,2.83 -0.6,5.38 -1.8,7.62 -1.2,2.25 -2.88,4.01 -5.06,5.28 -2.18,1.27 -4.6,1.91 -7.28,1.92l-10.19 0zm7.47 -25.22l0 19.47 2.59 0c2.14,0 3.79,-0.76 4.94,-2.29 1.15,-1.52 1.72,-3.79 1.72,-6.8l0 -1.34c0,-3 -0.57,-5.25 -1.72,-6.77 -1.15,-1.52 -2.82,-2.28 -5.02,-2.28l-2.5 0z"/>
  <path id="22" class="fil8" d="M955.48 71.69l0 20.27c0,2.3 -0.49,4.29 -1.47,5.97 -0.98,1.68 -2.38,2.96 -4.21,3.84 -1.83,0.88 -3.99,1.32 -6.48,1.32 -3.77,0 -6.74,-0.98 -8.91,-2.93 -2.17,-1.96 -3.27,-4.64 -3.32,-8.04l0 -20.43 7.51 0 0 20.57c0.09,3.39 1.66,5.08 4.73,5.08 1.54,0 2.71,-0.43 3.51,-1.28 0.79,-0.85 1.19,-2.24 1.19,-4.14l0 -20.23 7.46 0zm-16.26 35.89c0,-0.92 0.38,-1.68 1.14,-2.29 0.75,-0.59 1.71,-0.89 2.84,-0.89 1.13,0 2.08,0.3 2.84,0.89 0.76,0.6 1.14,1.36 1.14,2.29 0,0.92 -0.38,1.68 -1.14,2.29 -0.75,0.59 -1.71,0.89 -2.84,0.89 -1.13,0 -2.08,-0.3 -2.84,-0.89 -0.76,-0.6 -1.14,-1.37 -1.14,-2.29z"/>
  <path id="23" class="fil8" d="M985.18 92.18c-0.1,2.16 -0.68,4.06 -1.75,5.71 -1.06,1.65 -2.56,2.93 -4.47,3.83 -1.92,0.91 -4.12,1.36 -6.58,1.36 -4.07,0 -7.27,-1.33 -9.61,-3.98 -2.34,-2.65 -3.51,-6.4 -3.51,-11.23l0 -1.53c0,-3.03 0.53,-5.69 1.59,-7.96 1.05,-2.28 2.58,-4.04 4.56,-5.28 1.98,-1.24 4.28,-1.86 6.89,-1.86 3.76,0 6.78,0.99 9.06,2.97 2.29,1.97 3.58,4.7 3.89,8.17l-7.44 0c-0.06,-1.89 -0.53,-3.24 -1.42,-4.07 -0.89,-0.82 -2.26,-1.23 -4.09,-1.23 -1.86,0 -3.22,0.7 -4.08,2.08 -0.86,1.39 -1.32,3.61 -1.37,6.67l0 2.19c0,3.3 0.41,5.67 1.25,7.09 0.83,1.42 2.26,2.13 4.28,2.13 1.71,0 3.03,-0.41 3.93,-1.21 0.91,-0.81 1.39,-2.1 1.44,-3.86l7.43 0z"/>
  <polygon class="fil8" points="269.91,155.79 265.18,155.79 265.18,143.69 252.97,143.69 252.97,155.79 248.22,155.79 248.22,128.47 252.97,128.47 252.97,139.85 265.18,139.85 265.18,128.47 269.91,128.47 "/>
  <polygon id="1" class="fil8" points="281.54,155.79 276.81,155.79 276.81,128.47 281.54,128.47 "/>
  <path id="2" class="fil8" d="M309.32 152.25c-0.99,1.29 -2.36,2.27 -4.1,2.93 -1.75,0.66 -3.74,0.99 -5.97,0.99 -2.29,0 -4.32,-0.52 -6.08,-1.56 -1.77,-1.04 -3.12,-2.53 -4.08,-4.46 -0.96,-1.93 -1.46,-4.19 -1.49,-6.77l0 -2.14c0,-4.13 0.99,-7.36 2.96,-9.68 1.97,-2.32 4.73,-3.48 8.27,-3.48 3.04,0 5.46,0.76 7.24,2.27 1.79,1.51 2.87,3.68 3.23,6.51l-4.65 0c-0.52,-3.28 -2.43,-4.93 -5.72,-4.93 -2.13,0 -3.74,0.76 -4.85,2.29 -1.11,1.52 -1.68,3.77 -1.72,6.72l0 2.09c0,2.94 0.62,5.23 1.86,6.85 1.25,1.63 2.98,2.44 5.19,2.44 2.43,0 4.16,-0.54 5.18,-1.64l0 -5.32 -5.63 0 0 -3.61 10.35 0 0 10.48z"/>
  <polygon id="3" class="fil8" points="337.23,155.79 332.5,155.79 332.5,143.69 320.29,143.69 320.29,155.79 315.54,155.79 315.54,128.47 320.29,128.47 320.29,139.85 332.5,139.85 332.5,128.47 337.23,128.47 "/>
  <path id="4" class="fil8" d="M367.71 148.75c0,-1.2 -0.42,-2.13 -1.27,-2.77 -0.85,-0.65 -2.37,-1.31 -4.57,-1.97 -2.2,-0.66 -3.96,-1.4 -5.26,-2.22 -2.48,-1.56 -3.73,-3.61 -3.73,-6.12 0,-2.2 0.9,-4.02 2.7,-5.44 1.79,-1.43 4.12,-2.14 6.99,-2.14 1.9,0 3.59,0.35 5.08,1.05 1.49,0.7 2.66,1.7 3.51,3 0.85,1.29 1.27,2.73 1.27,4.31l-4.73 0c0,-1.42 -0.45,-2.52 -1.34,-3.32 -0.89,-0.8 -2.17,-1.2 -3.84,-1.2 -1.55,0 -2.75,0.33 -3.61,0.99 -0.86,0.66 -1.29,1.58 -1.29,2.76 0,0.99 0.47,1.82 1.39,2.49 0.93,0.67 2.45,1.31 4.58,1.94 2.13,0.63 3.84,1.34 5.12,2.15 1.29,0.81 2.23,1.74 2.83,2.78 0.6,1.05 0.9,2.27 0.9,3.68 0,2.28 -0.87,4.09 -2.62,5.44 -1.74,1.34 -4.11,2.02 -7.1,2.02 -1.97,0 -3.79,-0.36 -5.45,-1.1 -1.66,-0.73 -2.95,-1.74 -3.86,-3.03 -0.92,-1.29 -1.38,-2.79 -1.38,-4.51l4.75 0c0,1.55 0.51,2.75 1.54,3.6 1.02,0.85 2.49,1.27 4.41,1.27 1.65,0 2.89,-0.33 3.73,-1.01 0.83,-0.67 1.25,-1.55 1.25,-2.65z"/>
  <path id="5" class="fil8" d="M398.46 146.89c-0.28,2.91 -1.35,5.19 -3.23,6.83 -1.88,1.63 -4.37,2.45 -7.49,2.45 -2.18,0 -4.09,-0.52 -5.75,-1.55 -1.66,-1.03 -2.93,-2.5 -3.84,-4.4 -0.9,-1.9 -1.37,-4.11 -1.41,-6.63l0 -2.55c0,-2.58 0.46,-4.85 1.37,-6.81 0.92,-1.97 2.22,-3.48 3.93,-4.55 1.71,-1.06 3.68,-1.59 5.92,-1.59 3.02,0 5.44,0.82 7.28,2.45 1.84,1.64 2.91,3.95 3.21,6.94l-4.73 0c-0.22,-1.96 -0.8,-3.38 -1.72,-4.25 -0.92,-0.87 -2.27,-1.31 -4.05,-1.31 -2.06,0 -3.64,0.76 -4.75,2.26 -1.11,1.51 -1.68,3.72 -1.7,6.63l0 2.42c0,2.96 0.53,5.21 1.58,6.76 1.06,1.55 2.61,2.32 4.64,2.32 1.86,0 3.27,-0.42 4.2,-1.26 0.94,-0.84 1.54,-2.23 1.79,-4.19l4.73 0z"/>
  <polygon id="6" class="fil8" points="425.39,155.79 420.67,155.79 420.67,143.69 408.46,143.69 408.46,155.79 403.71,155.79 403.71,128.47 408.46,128.47 408.46,139.85 420.67,139.85 420.67,128.47 425.39,128.47 "/>
  <path id="7" class="fil8" d="M453.81 142.84c0,2.68 -0.47,5.03 -1.39,7.05 -0.93,2.02 -2.25,3.57 -3.97,4.66 -1.72,1.08 -3.69,1.63 -5.94,1.63 -2.22,0 -4.19,-0.54 -5.92,-1.63 -1.74,-1.08 -3.07,-2.63 -4.02,-4.62 -0.95,-2 -1.42,-4.32 -1.43,-6.93l0 -1.54c0,-2.66 0.47,-5.01 1.42,-7.06 0.94,-2.04 2.27,-3.6 4,-4.68 1.72,-1.08 3.69,-1.63 5.92,-1.63 2.23,0 4.2,0.54 5.92,1.61 1.72,1.07 3.05,2.61 3.99,4.62 0.93,2.01 1.42,4.35 1.43,7.01l0 1.52zm-4.75 -1.39c0,-3.04 -0.57,-5.36 -1.72,-6.98 -1.14,-1.62 -2.77,-2.43 -4.87,-2.43 -2.05,0 -3.66,0.81 -4.81,2.42 -1.16,1.61 -1.75,3.89 -1.77,6.84l0 1.58c0,3.01 0.58,5.33 1.75,6.98 1.17,1.65 2.79,2.47 4.87,2.47 2.1,0 3.71,-0.8 4.85,-2.41 1.13,-1.61 1.7,-3.95 1.7,-7.04l0 -1.43z"/>
  <path id="8" class="fil8" d="M481.35 142.84c0,2.68 -0.47,5.03 -1.39,7.05 -0.93,2.02 -2.25,3.57 -3.97,4.66 -1.72,1.08 -3.69,1.63 -5.94,1.63 -2.22,0 -4.19,-0.54 -5.92,-1.63 -1.74,-1.08 -3.07,-2.63 -4.02,-4.62 -0.95,-2 -1.42,-4.32 -1.43,-6.93l0 -1.54c0,-2.66 0.47,-5.01 1.42,-7.06 0.94,-2.04 2.27,-3.6 4,-4.68 1.72,-1.08 3.69,-1.63 5.92,-1.63 2.23,0 4.2,0.54 5.92,1.61 1.72,1.07 3.05,2.61 3.99,4.62 0.93,2.01 1.42,4.35 1.43,7.01l0 1.52zm-4.75 -1.39c0,-3.04 -0.57,-5.36 -1.72,-6.98 -1.14,-1.62 -2.77,-2.43 -4.87,-2.43 -2.05,0 -3.66,0.81 -4.81,2.42 -1.16,1.61 -1.75,3.89 -1.77,6.84l0 1.58c0,3.01 0.58,5.33 1.75,6.98 1.17,1.65 2.79,2.47 4.87,2.47 2.1,0 3.71,-0.8 4.85,-2.41 1.13,-1.61 1.7,-3.95 1.7,-7.04l0 -1.43z"/>
  <polygon id="9" class="fil8" points="491.85,151.95 504.24,151.95 504.24,155.79 487.1,155.79 487.1,128.47 491.85,128.47 "/>
  <path id="10" class="fil8" d="M540.26 142.84c0,2.68 -0.47,5.03 -1.39,7.05 -0.93,2.02 -2.25,3.57 -3.97,4.66 -1.72,1.08 -3.69,1.63 -5.94,1.63 -2.22,0 -4.19,-0.54 -5.92,-1.63 -1.74,-1.08 -3.07,-2.63 -4.02,-4.62 -0.95,-2 -1.42,-4.32 -1.43,-6.93l0 -1.54c0,-2.66 0.47,-5.01 1.42,-7.06 0.94,-2.04 2.27,-3.6 4,-4.68 1.72,-1.08 3.69,-1.63 5.92,-1.63 2.23,0 4.2,0.54 5.92,1.61 1.72,1.07 3.05,2.61 3.99,4.62 0.93,2.01 1.42,4.35 1.43,7.01l0 1.52zm-4.75 -1.39c0,-3.04 -0.57,-5.36 -1.72,-6.98 -1.14,-1.62 -2.77,-2.43 -4.87,-2.43 -2.05,0 -3.66,0.81 -4.81,2.42 -1.16,1.61 -1.75,3.89 -1.77,6.84l0 1.58c0,3.01 0.58,5.33 1.75,6.98 1.17,1.65 2.79,2.47 4.87,2.47 2.1,0 3.71,-0.8 4.85,-2.41 1.13,-1.61 1.7,-3.95 1.7,-7.04l0 -1.43z"/>
  <polygon id="11" class="fil8" points="561.74,144.26 550.75,144.26 550.75,155.79 546,155.79 546,128.47 563.36,128.47 563.36,132.32 550.75,132.32 550.75,140.42 561.74,140.42 "/>
  <polygon id="12" class="fil8" points="593.65,143.61 582.43,143.61 582.43,151.95 595.55,151.95 595.55,155.79 577.69,155.79 577.69,128.47 595.41,128.47 595.41,132.32 582.43,132.32 582.43,139.85 593.65,139.85 "/>
  <path id="13" class="fil8" d="M600.42 155.79l0 -27.32 8.07 0c2.41,0 4.55,0.54 6.42,1.61 1.87,1.08 3.32,2.6 4.34,4.58 1.02,1.97 1.54,4.24 1.54,6.79l0 1.36c0,2.59 -0.51,4.87 -1.54,6.83 -1.03,1.97 -2.5,3.48 -4.41,4.54 -1.91,1.06 -4.09,1.59 -6.56,1.59l-7.86 0zm4.75 -23.48l0 19.63 3.09 0c2.49,0 4.4,-0.77 5.73,-2.33 1.33,-1.55 2.01,-3.78 2.04,-6.68l0 -1.52c0,-2.95 -0.64,-5.21 -1.93,-6.77 -1.29,-1.56 -3.16,-2.34 -5.61,-2.34l-3.32 0z"/>
  <path id="14" class="fil8" d="M646.52 128.47l0 18.26c0,2.9 -0.93,5.2 -2.79,6.9 -1.86,1.7 -4.33,2.54 -7.42,2.54 -3.13,0 -5.61,-0.83 -7.45,-2.5 -1.84,-1.67 -2.75,-3.99 -2.75,-6.95l0 -18.24 4.73 0 0 18.24c0,1.82 0.46,3.21 1.39,4.18 0.92,0.96 2.29,1.44 4.09,1.44 3.66,0 5.48,-1.92 5.48,-5.77l0 -18.09 4.73 0z"/>
  <path id="15" class="fil8" d="M673.44 146.89c-0.28,2.91 -1.35,5.19 -3.23,6.83 -1.88,1.63 -4.37,2.45 -7.49,2.45 -2.18,0 -4.09,-0.52 -5.75,-1.55 -1.66,-1.03 -2.93,-2.5 -3.84,-4.4 -0.9,-1.9 -1.37,-4.11 -1.41,-6.63l0 -2.55c0,-2.58 0.46,-4.85 1.37,-6.81 0.92,-1.97 2.22,-3.48 3.93,-4.55 1.71,-1.06 3.68,-1.59 5.92,-1.59 3.02,0 5.44,0.82 7.28,2.45 1.84,1.64 2.91,3.95 3.21,6.94l-4.73 0c-0.22,-1.96 -0.8,-3.38 -1.72,-4.25 -0.92,-0.87 -2.27,-1.31 -4.05,-1.31 -2.06,0 -3.64,0.76 -4.75,2.26 -1.11,1.51 -1.68,3.72 -1.7,6.63l0 2.42c0,2.96 0.53,5.21 1.58,6.76 1.06,1.55 2.61,2.32 4.64,2.32 1.86,0 3.27,-0.42 4.2,-1.26 0.94,-0.84 1.54,-2.23 1.79,-4.19l4.73 0z"/>
  <path id="16" class="fil8" d="M693.97 149.45l-10.58 0 -2.22 6.34 -4.93 0 10.32 -27.32 4.26 0 10.34 27.32 -4.95 0 -2.23 -6.34zm-9.25 -3.84l7.92 0 -3.96 -11.34 -3.96 11.34z"/>
  <polygon id="17" class="fil8" points="722.75,132.32 714.24,132.32 714.24,155.79 709.52,155.79 709.52,132.32 701.08,132.32 701.08,128.47 722.75,128.47 "/>
  <polygon id="18" class="fil8" points="732.36,155.79 727.63,155.79 727.63,128.47 732.36,128.47 "/>
  <path id="19" class="fil8" d="M760.99 142.84c0,2.68 -0.47,5.03 -1.39,7.05 -0.93,2.02 -2.25,3.57 -3.97,4.66 -1.72,1.08 -3.69,1.63 -5.94,1.63 -2.22,0 -4.19,-0.54 -5.92,-1.63 -1.74,-1.08 -3.07,-2.63 -4.02,-4.62 -0.95,-2 -1.42,-4.32 -1.43,-6.93l0 -1.54c0,-2.66 0.47,-5.01 1.42,-7.06 0.94,-2.04 2.27,-3.6 4,-4.68 1.72,-1.08 3.69,-1.63 5.92,-1.63 2.23,0 4.2,0.54 5.92,1.61 1.72,1.07 3.05,2.61 3.99,4.62 0.93,2.01 1.42,4.35 1.43,7.01l0 1.52zm-4.75 -1.39c0,-3.04 -0.57,-5.36 -1.72,-6.98 -1.14,-1.62 -2.77,-2.43 -4.87,-2.43 -2.05,0 -3.66,0.81 -4.81,2.42 -1.16,1.61 -1.75,3.89 -1.77,6.84l0 1.58c0,3.01 0.58,5.33 1.75,6.98 1.17,1.65 2.79,2.47 4.87,2.47 2.1,0 3.71,-0.8 4.85,-2.41 1.13,-1.61 1.7,-3.95 1.7,-7.04l0 -1.43z"/>
  <polygon id="20" class="fil8" points="788.41,155.79 783.66,155.79 771.48,136.41 771.48,155.79 766.74,155.79 766.74,128.47 771.48,128.47 783.7,147.93 783.7,128.47 788.41,128.47 "/>
  <path id="21" class="fil8" d="M818.88 148.75c0,-1.2 -0.42,-2.13 -1.27,-2.77 -0.85,-0.65 -2.37,-1.31 -4.57,-1.97 -2.2,-0.66 -3.96,-1.4 -5.26,-2.22 -2.48,-1.56 -3.73,-3.61 -3.73,-6.12 0,-2.2 0.9,-4.02 2.7,-5.44 1.79,-1.43 4.12,-2.14 6.99,-2.14 1.9,0 3.59,0.35 5.08,1.05 1.49,0.7 2.66,1.7 3.51,3 0.85,1.29 1.27,2.73 1.27,4.31l-4.73 0c0,-1.42 -0.45,-2.52 -1.34,-3.32 -0.89,-0.8 -2.17,-1.2 -3.84,-1.2 -1.55,0 -2.75,0.33 -3.61,0.99 -0.86,0.66 -1.29,1.58 -1.29,2.76 0,0.99 0.47,1.82 1.39,2.49 0.93,0.67 2.45,1.31 4.58,1.94 2.13,0.63 3.84,1.34 5.12,2.15 1.29,0.81 2.23,1.74 2.83,2.78 0.6,1.05 0.9,2.27 0.9,3.68 0,2.28 -0.87,4.09 -2.62,5.44 -1.74,1.34 -4.11,2.02 -7.1,2.02 -1.97,0 -3.79,-0.36 -5.45,-1.1 -1.66,-0.73 -2.95,-1.74 -3.86,-3.03 -0.92,-1.29 -1.38,-2.79 -1.38,-4.51l4.75 0c0,1.55 0.51,2.75 1.54,3.6 1.02,0.85 2.49,1.27 4.41,1.27 1.65,0 2.89,-0.33 3.73,-1.01 0.83,-0.67 1.25,-1.55 1.25,-2.65z"/>
  <path id="22" class="fil8" d="M849.64 146.89c-0.28,2.91 -1.35,5.19 -3.23,6.83 -1.88,1.63 -4.37,2.45 -7.49,2.45 -2.18,0 -4.09,-0.52 -5.75,-1.55 -1.66,-1.03 -2.93,-2.5 -3.84,-4.4 -0.9,-1.9 -1.37,-4.11 -1.41,-6.63l0 -2.55c0,-2.58 0.46,-4.85 1.37,-6.81 0.92,-1.97 2.22,-3.48 3.93,-4.55 1.71,-1.06 3.68,-1.59 5.92,-1.59 3.02,0 5.44,0.82 7.28,2.45 1.84,1.64 2.91,3.95 3.21,6.94l-4.73 0c-0.22,-1.96 -0.8,-3.38 -1.72,-4.25 -0.92,-0.87 -2.27,-1.31 -4.05,-1.31 -2.06,0 -3.64,0.76 -4.75,2.26 -1.11,1.51 -1.68,3.72 -1.7,6.63l0 2.42c0,2.96 0.53,5.21 1.58,6.76 1.06,1.55 2.61,2.32 4.64,2.32 1.86,0 3.27,-0.42 4.2,-1.26 0.94,-0.84 1.54,-2.23 1.79,-4.19l4.73 0z"/>
  <polygon id="23" class="fil8" points="859.89,155.79 855.17,155.79 855.17,128.47 859.89,128.47 "/>
  <polygon id="24" class="fil8" points="882.7,143.61 871.48,143.61 871.48,151.95 884.6,151.95 884.6,155.79 866.74,155.79 866.74,128.47 884.46,128.47 884.46,132.32 871.48,132.32 871.48,139.85 882.7,139.85 "/>
  <polygon id="25" class="fil8" points="911.14,155.79 906.39,155.79 894.22,136.41 894.22,155.79 889.47,155.79 889.47,128.47 894.22,128.47 906.43,147.93 906.43,128.47 911.14,128.47 "/>
  <path id="26" class="fil8" d="M938.61 146.89c-0.28,2.91 -1.35,5.19 -3.23,6.83 -1.88,1.63 -4.37,2.45 -7.49,2.45 -2.18,0 -4.09,-0.52 -5.75,-1.55 -1.66,-1.03 -2.93,-2.5 -3.84,-4.4 -0.9,-1.9 -1.37,-4.11 -1.41,-6.63l0 -2.55c0,-2.58 0.46,-4.85 1.37,-6.81 0.92,-1.97 2.22,-3.48 3.93,-4.55 1.71,-1.06 3.68,-1.59 5.92,-1.59 3.02,0 5.44,0.82 7.28,2.45 1.84,1.64 2.91,3.95 3.21,6.94l-4.73 0c-0.22,-1.96 -0.8,-3.38 -1.72,-4.25 -0.92,-0.87 -2.27,-1.31 -4.05,-1.31 -2.06,0 -3.64,0.76 -4.75,2.26 -1.11,1.51 -1.68,3.72 -1.7,6.63l0 2.42c0,2.96 0.53,5.21 1.58,6.76 1.06,1.55 2.61,2.32 4.64,2.32 1.86,0 3.27,-0.42 4.2,-1.26 0.94,-0.84 1.54,-2.23 1.79,-4.19l4.73 0z"/>
  <polygon id="27" class="fil8" points="959.82,143.61 948.6,143.61 948.6,151.95 961.72,151.95 961.72,155.79 943.86,155.79 943.86,128.47 961.58,128.47 961.58,132.32 948.6,132.32 948.6,139.85 959.82,139.85 "/>
  <path id="28" class="fil8" d="M980.88 148.75c0,-1.2 -0.42,-2.13 -1.27,-2.77 -0.85,-0.65 -2.37,-1.31 -4.57,-1.97 -2.2,-0.66 -3.96,-1.4 -5.26,-2.22 -2.48,-1.56 -3.73,-3.61 -3.73,-6.12 0,-2.2 0.9,-4.02 2.7,-5.44 1.79,-1.43 4.12,-2.14 6.99,-2.14 1.9,0 3.59,0.35 5.08,1.05 1.49,0.7 2.66,1.7 3.51,3 0.85,1.29 1.27,2.73 1.27,4.31l-4.73 0c0,-1.42 -0.45,-2.52 -1.34,-3.32 -0.89,-0.8 -2.17,-1.2 -3.84,-1.2 -1.55,0 -2.75,0.33 -3.61,0.99 -0.86,0.66 -1.29,1.58 -1.29,2.76 0,0.99 0.47,1.82 1.39,2.49 0.93,0.67 2.45,1.31 4.58,1.94 2.13,0.63 3.84,1.34 5.12,2.15 1.29,0.81 2.23,1.74 2.83,2.78 0.6,1.05 0.9,2.27 0.9,3.68 0,2.28 -0.87,4.09 -2.62,5.44 -1.74,1.34 -4.11,2.02 -7.1,2.02 -1.97,0 -3.79,-0.36 -5.45,-1.1 -1.66,-0.73 -2.95,-1.74 -3.86,-3.03 -0.92,-1.29 -1.38,-2.79 -1.38,-4.51l4.75 0c0,1.55 0.51,2.75 1.54,3.6 1.02,0.85 2.49,1.27 4.41,1.27 1.65,0 2.89,-0.33 3.73,-1.01 0.83,-0.67 1.25,-1.55 1.25,-2.65z"/>
 </g>
</svg>
